<?xml version="1.0" encoding="UTF-8"?>
<!DOCTYPE svg PUBLIC "-//W3C//DTD SVG 1.1//EN" "http://www.w3.org/Graphics/SVG/1.1/DTD/svg11.dtd">
<svg xmlns="http://www.w3.org/2000/svg" version="1.1" width="360px" height="449px" style="shape-rendering:geometricPrecision; text-rendering:geometricPrecision; image-rendering:optimizeQuality; fill-rule:evenodd; clip-rule:evenodd" xmlns:xlink="http://www.w3.org/1999/xlink">
<g><path style="opacity:1" fill="#f5f5f4" d="M -0.5,-0.5 C 119.5,-0.5 239.5,-0.5 359.5,-0.5C 359.5,34.5 359.5,69.5 359.5,104.5C 354.5,104.5 349.5,104.5 344.5,104.5C 344.5,99.5 344.5,94.5 344.5,89.5C 339.5,89.5 334.5,89.5 329.5,89.5C 329.5,84.5 329.5,79.5 329.5,74.5C 328.167,74.5 326.833,74.5 325.5,74.5C 324.764,91.9833 324.098,113.317 323.5,138.5C 323.667,115.164 323.5,91.831 323,68.5C 303.684,60.2541 286.184,49.0875 270.5,35C 253.328,24.3853 234.661,17.7186 214.5,15C 179.886,9.60103 145.886,12.2677 112.5,23C 107.38,25.06 102.38,27.3933 97.5,30C 85.8039,38.5093 74.1372,47.0093 62.5,55.5C 61.8106,54.2264 60.9772,54.2264 60,55.5C 59.5014,51.8484 59.3347,48.1817 59.5,44.5C 54.5,44.5 49.5,44.5 44.5,44.5C 44.5,49.5 44.5,54.5 44.5,59.5C 39.5,59.5 34.5,59.5 29.5,59.5C 29.5,64.5 29.5,69.5 29.5,74.5C 24.5,74.5 19.5,74.5 14.5,74.5C 14.5,79.5 14.5,84.5 14.5,89.5C 19.5,89.5 24.5,89.5 29.5,89.5C 29.5,94.5 29.5,99.5 29.5,104.5C 24.5,104.5 19.5,104.5 14.5,104.5C 14.5,109.5 14.5,114.5 14.5,119.5C 19.5,119.5 24.5,119.5 29.5,119.5C 29.5,124.5 29.5,129.5 29.5,134.5C 24.5,134.5 19.5,134.5 14.5,134.5C 14.5,139.5 14.5,144.5 14.5,149.5C 19.5,149.5 24.5,149.5 29.5,149.5C 29.5,154.5 29.5,159.5 29.5,164.5C 24.5,164.5 19.5,164.5 14.5,164.5C 14.5,169.5 14.5,174.5 14.5,179.5C 19.5,179.5 24.5,179.5 29.5,179.5C 29.5,184.5 29.5,189.5 29.5,194.5C 24.5,194.5 19.5,194.5 14.5,194.5C 14.5,199.5 14.5,204.5 14.5,209.5C 19.5,209.5 24.5,209.5 29.5,209.5C 29.5,214.5 29.5,219.5 29.5,224.5C 24.5,224.5 19.5,224.5 14.5,224.5C 14.5,229.5 14.5,234.5 14.5,239.5C 19.5,239.5 24.5,239.5 29.5,239.5C 29.5,244.5 29.5,249.5 29.5,254.5C 24.5,254.5 19.5,254.5 14.5,254.5C 14.5,259.5 14.5,264.5 14.5,269.5C 19.5,269.5 24.5,269.5 29.5,269.5C 29.5,274.5 29.5,279.5 29.5,284.5C 33.1667,284.5 36.8333,284.5 40.5,284.5C 40.8333,289.833 41.1667,289.833 41.5,284.5C 42.8137,289.348 42.8137,294.348 41.5,299.5C 33.8333,304.667 26.1667,309.833 18.5,315C 15.1295,317.697 13.7962,321.197 14.5,325.5C 13.2089,326.542 13.2089,327.708 14.5,329C 9.51108,329.499 4.51108,329.666 -0.5,329.5C -0.5,219.5 -0.5,109.5 -0.5,-0.5 Z"/></g>
<g><path style="opacity:1" fill="#1c1917" d="M 323.5,138.5 C 322.93,190.897 320.93,243.23 317.5,295.5C 317.39,297.374 318.056,298.874 319.5,300C 327.167,305 334.833,310 342.5,315C 347.294,319.698 347.794,324.865 344,330.5C 333.808,350.898 321.141,369.564 306,386.5C 306.56,381.244 306.56,375.91 306,370.5C 269.945,410.109 225.112,430.609 171.5,432C 125.173,425.507 86.173,405.34 54.5,371.5C 53.9891,376.126 53.8225,380.793 54,385.5C 37.3799,367.725 24.2133,347.725 14.5,325.5C 13.7962,321.197 15.1295,317.697 18.5,315C 26.1667,309.833 33.8333,304.667 41.5,299.5C 42.8137,294.348 42.8137,289.348 41.5,284.5C 37.757,212.552 36.257,140.552 37,68.5C 46.0451,65.0615 54.5451,60.7282 62.5,55.5C 74.1372,47.0093 85.8039,38.5093 97.5,30C 102.38,27.3933 107.38,25.06 112.5,23C 145.886,12.2677 179.886,9.60103 214.5,15C 234.661,17.7186 253.328,24.3853 270.5,35C 286.184,49.0875 303.684,60.2541 323,68.5C 323.5,91.831 323.667,115.164 323.5,138.5 Z"/></g>
<g><path style="opacity:1" fill="#fbfbfb" d="M 309.5,78.5 C 309.5,124.5 309.5,170.5 309.5,216.5C 305.5,216.5 301.5,216.5 297.5,216.5C 297.832,172.663 297.499,128.997 296.5,85.5C 296.167,85.5 295.833,85.5 295.5,85.5C 279.328,77.4974 265.328,66.664 253.5,53C 243.127,49.2837 232.627,46.117 222,43.5C 221.866,49.1683 222.199,54.835 223,60.5C 224.912,61.6919 226.912,62.6919 229,63.5C 229.49,64.7932 229.657,66.1266 229.5,67.5C 227.167,67.5 224.833,67.5 222.5,67.5C 221.734,79.2986 217.901,89.9653 211,99.5C 210.421,110.631 209.087,121.631 207,132.5C 205.717,139.96 203.883,140.293 201.5,133.5C 200.908,130.873 200.575,128.206 200.5,125.5C 198.833,125.5 197.167,125.5 195.5,125.5C 195.5,157.167 195.5,188.833 195.5,220.5C 194.167,220.5 192.833,220.5 191.5,220.5C 191.667,184.165 191.5,147.832 191,111.5C 189.878,105.92 187.212,101.253 183,97.5C 182.667,91.5 182.333,85.5 182,79.5C 181.395,77.5188 180.395,77.1854 179,78.5C 178.667,84.5 178.333,90.5 178,96.5C 172.881,101.404 169.881,107.404 169,114.5C 168.5,149.832 168.333,185.165 168.5,220.5C 167.5,220.5 166.5,220.5 165.5,220.5C 165.5,188.833 165.5,157.167 165.5,125.5C 163.5,125.5 161.5,125.5 159.5,125.5C 159.47,129.618 158.803,133.618 157.5,137.5C 156.883,137.611 156.383,137.944 156,138.5C 151.924,125.85 149.924,112.85 150,99.5C 142.698,90.0955 138.865,79.4288 138.5,67.5C 135.833,67.5 133.167,67.5 130.5,67.5C 130.286,65.8561 130.62,64.3561 131.5,63C 133.659,62.088 135.825,61.2546 138,60.5C 138.214,55.1146 138.714,49.7813 139.5,44.5C 128.531,45.534 117.865,48.3673 107.5,53C 94.9774,66.5283 80.4774,77.3617 64,85.5C 63.5,129.499 63.3333,173.499 63.5,217.5C 59.1667,217.5 54.8333,217.5 50.5,217.5C 50.3333,171.165 50.5,124.832 51,78.5C 70.0797,69.8723 86.5797,57.7057 100.5,42C 115.937,32.9648 132.604,27.2982 150.5,25C 159.139,23.9907 167.806,23.4907 176.5,23.5C 174.961,28.7843 173.627,34.1177 172.5,39.5C 163.827,39.3336 155.16,39.5002 146.5,40C 152.718,45.2186 159.218,50.052 166,54.5C 164.156,62.8748 162.156,71.2081 160,79.5C 166.677,74.8186 173.344,70.1519 180,65.5C 187.546,69.7093 194.546,74.7093 201,80.5C 199.336,72.169 196.836,64.0023 193.5,56C 200.196,50.3081 207.196,44.9748 214.5,40C 205.814,39.8319 197.148,39.3319 188.5,38.5C 186.528,33.9445 184.861,29.2778 183.5,24.5C 206.293,23.5283 228.293,27.3617 249.5,36C 253.828,37.8287 257.828,40.162 261.5,43C 266.833,49.6667 272.833,55.6667 279.5,61C 289.103,67.6307 299.103,73.464 309.5,78.5 Z"/></g>
<g><path style="opacity:1" fill="#c3bf1d" d="M 182.5,30.5 C 181.834,35.3489 181.167,40.3489 180.5,45.5C 179.672,41.2044 179.172,36.8711 179,32.5C 178.493,36.1825 176.993,39.1825 174.5,41.5C 176.023,35.428 177.857,29.428 180,23.5C 181.523,25.5692 182.357,27.9026 182.5,30.5 Z"/></g>
<g><path style="opacity:1" fill="#f5f113" d="M 182.5,30.5 C 183.535,34.4391 184.869,38.2725 186.5,42C 192.833,42.3333 199.167,42.6667 205.5,43C 200.151,46.6946 195.151,50.6946 190.5,55C 193.171,61.0056 195.005,67.1722 196,73.5C 190.846,69.2567 185.512,65.2567 180,61.5C 175,65.1667 170,68.8333 165,72.5C 166.134,66.1048 167.467,59.7715 169,53.5C 164.167,50 159.333,46.5 154.5,43C 161.246,42.7953 167.913,42.2953 174.5,41.5C 176.993,39.1825 178.493,36.1825 179,32.5C 179.172,36.8711 179.672,41.2044 180.5,45.5C 181.167,40.3489 181.834,35.3489 182.5,30.5 Z"/></g>
<g><path style="opacity:1" fill="#110f0d" d="M 178.5,48.5 C 183.833,49.5 183.833,50.5 178.5,51.5C 178.5,50.5 178.5,49.5 178.5,48.5 Z"/></g>
<g><path style="opacity:1" fill="#625d1d" d="M 196.5,44.5 C 197.239,44.369 197.906,44.5357 198.5,45C 194.147,47.4041 189.48,48.4041 184.5,48C 188.675,47.0089 192.675,45.8422 196.5,44.5 Z"/></g>
<g><path style="opacity:1" fill="#625d20" d="M 161.5,45.5 C 166.154,45.0587 170.821,45.892 175.5,48C 170.714,48.0101 166.047,47.1767 161.5,45.5 Z"/></g>
<g><path style="opacity:1" fill="#5d581e" d="M 185.5,57.5 C 183.272,56.6782 182.605,55.3448 183.5,53.5C 184.705,54.5769 185.372,55.9102 185.5,57.5 Z"/></g>
<g><path style="opacity:1" fill="#48431c" d="M 185.5,57.5 C 186.906,57.9731 187.573,58.9731 187.5,60.5C 186.094,60.0269 185.427,59.0269 185.5,57.5 Z"/></g>
<g><path style="opacity:1" fill="#5b5620" d="M 187.5,60.5 C 189.982,61.8043 191.149,63.8043 191,66.5C 189.558,64.6089 188.391,62.6089 187.5,60.5 Z"/></g>
<g><path style="opacity:1" fill="#5a551f" d="M 176.5,53.5 C 177.376,53.3691 178.043,53.7025 178.5,54.5C 176.192,57.9748 173.692,61.3081 171,64.5C 172.494,60.7891 174.328,57.1224 176.5,53.5 Z"/></g>
<g><path style="opacity:1" fill="#0490d8" d="M 294.5,86.5 C 295.499,129.997 295.832,173.663 295.5,217.5C 293.833,217.5 292.167,217.5 290.5,217.5C 292.392,210.627 292.892,203.627 292,196.5C 289.588,200.352 288.421,200.185 288.5,196C 289.985,188.439 289.818,180.939 288,173.5C 287,174.833 286,176.167 285,177.5C 286.17,167.727 285.503,158.06 283,148.5C 282,150.167 281,151.833 280,153.5C 279.949,143.529 278.283,133.862 275,124.5C 274.085,125.328 273.419,126.328 273,127.5C 272.079,118.865 269.413,110.865 265,103.5C 264.581,104.672 263.915,105.672 263,106.5C 261.524,97.9308 258.524,89.9308 254,82.5C 253.586,82.0426 253.086,81.7093 252.5,81.5C 251.671,86.8025 251.171,92.1358 251,97.5C 249.881,93.9295 248.215,90.5961 246,87.5C 240.333,82.8333 234.667,78.1667 229,73.5C 230.127,83.8275 234.294,92.8275 241.5,100.5C 241,100.833 240.5,101.167 240,101.5C 235.873,99.9651 232.039,97.9651 228.5,95.5C 228.167,95.8333 227.833,96.1667 227.5,96.5C 232.578,105.076 238.911,112.576 246.5,119C 243.281,118.498 240.448,116.998 238,114.5C 240.866,123.369 245.699,131.202 252.5,138C 251.833,138.667 251.167,138.667 250.5,138C 249.315,136.647 247.981,135.48 246.5,134.5C 247.731,143.629 251.731,151.629 258.5,158.5C 257.998,159.521 257.332,159.688 256.5,159C 255.333,157.833 254.167,156.667 253,155.5C 254.091,164.264 257.258,172.264 262.5,179.5C 259.941,179.853 258.107,178.52 257,175.5C 256.833,176.333 256.667,177.167 256.5,178C 257.963,183.482 259.463,188.982 261,194.5C 265.795,202.375 265.128,203.041 259,196.5C 259.367,200.746 259.533,205.08 259.5,209.5C 245.965,204.73 233.965,197.397 223.5,187.5C 222.516,184.572 222.183,181.572 222.5,178.5C 220.833,178.5 219.167,178.5 217.5,178.5C 217.5,176.5 217.5,174.5 217.5,172.5C 215.5,172.5 213.5,172.5 211.5,172.5C 211.5,170.167 211.5,167.833 211.5,165.5C 210.5,165.5 209.5,165.5 208.5,165.5C 208.5,164.5 208.5,163.5 208.5,162.5C 210.5,162.5 212.5,162.5 214.5,162.5C 214.5,158.833 214.5,155.167 214.5,151.5C 212.278,151.822 210.444,151.155 209,149.5C 207.261,147.29 206.094,144.79 205.5,142C 209.459,128.448 211.959,114.615 213,100.5C 219.907,91.3461 223.407,81.0128 223.5,69.5C 230.62,72.2144 233.12,69.881 231,62.5C 227.889,61.7183 225.723,59.8849 224.5,57C 223.37,53.479 223.37,49.979 224.5,46.5C 234.036,48.7166 243.37,51.55 252.5,55C 264.562,68.1858 278.562,78.6858 294.5,86.5 Z"/></g>
<g><path style="opacity:1" fill="#0392db" d="M 94.5,212.5 C 92.6693,213.052 91.0026,213.052 89.5,212.5C 93.1612,205.516 95.8278,198.182 97.5,190.5C 97.5261,186.388 95.5261,183.888 91.5,183C 96.2856,177.265 100.452,171.099 104,164.5C 105.443,159.788 104.277,155.955 100.5,153C 106.771,147.403 112.271,141.236 117,134.5C 117.667,132.5 117.667,130.5 117,128.5C 115.519,127.529 114.685,126.196 114.5,124.5C 114.5,123.833 114.833,123.5 115.5,123.5C 120.343,120.324 123.676,115.991 125.5,110.5C 125.32,109.446 124.987,108.446 124.5,107.5C 127.43,103.952 130.097,100.285 132.5,96.5C 133.886,94.0621 133.553,91.7288 131.5,89.5C 132.193,88.4822 132.859,87.4822 133.5,86.5C 134.341,84.6208 134.675,82.6208 134.5,80.5C 134.461,79.4168 134.127,78.4168 133.5,77.5C 126.26,74.6074 122.593,76.9408 122.5,84.5C 115.936,85.574 113.269,89.574 114.5,96.5C 115.1,97.8999 116.1,98.8999 117.5,99.5C 116.167,99.8333 114.833,100.167 113.5,100.5C 110.482,100.335 107.482,100.502 104.5,101C 103.748,101.671 103.414,102.504 103.5,103.5C 102.207,104.842 101.374,106.509 101,108.5C 100.824,111.882 100.324,115.215 99.5,118.5C 94.4774,117.258 90.6441,118.925 88,123.5C 85.7175,131.958 85.3841,140.291 87,148.5C 84.2595,149.282 81.4262,149.782 78.5,150C 74.6271,154.785 73.4605,160.285 75,166.5C 75.1809,171.706 76.0143,176.706 77.5,181.5C 69.0385,181.797 65.5385,186.13 67,194.5C 67.7249,197.79 68.8916,200.79 70.5,203.5C 71.4332,207.468 72.4332,211.468 73.5,215.5C 70.6703,215.694 68.0037,216.361 65.5,217.5C 65.3333,173.832 65.5,130.165 66,86.5C 81.8736,78.5026 95.707,68.0026 107.5,55C 116.807,50.8411 126.473,48.0077 136.5,46.5C 136.563,51.2029 136.229,55.8696 135.5,60.5C 133.278,60.178 131.444,60.8446 130,62.5C 129.503,65.146 129.336,67.8127 129.5,70.5C 131.806,70.0074 134.139,69.6741 136.5,69.5C 136.698,81.2678 140.531,91.6011 148,100.5C 148.333,105.833 148.667,111.167 149,116.5C 150.685,125.191 152.518,133.857 154.5,142.5C 153.937,145.862 152.603,148.862 150.5,151.5C 149.311,152.429 147.978,152.762 146.5,152.5C 146.5,155.833 146.5,159.167 146.5,162.5C 148.167,162.5 149.833,162.5 151.5,162.5C 151.5,163.5 151.5,164.5 151.5,165.5C 150.5,165.5 149.5,165.5 148.5,165.5C 148.5,167.5 148.5,169.5 148.5,171.5C 146.5,171.5 144.5,171.5 142.5,171.5C 142.5,173.833 142.5,176.167 142.5,178.5C 140.833,178.5 139.167,178.5 137.5,178.5C 137.665,181.518 137.498,184.518 137,187.5C 124.601,198.785 110.435,207.118 94.5,212.5 Z"/></g>
<g><path style="opacity:1" fill="#4f6171" d="M 134.5,80.5 C 132.952,80.1788 132.285,79.1788 132.5,77.5C 129.873,78.0916 127.206,78.4249 124.5,78.5C 124.5,79.8333 124.5,81.1667 124.5,82.5C 124.167,83.5 123.5,84.1667 122.5,84.5C 122.593,76.9408 126.26,74.6074 133.5,77.5C 134.127,78.4168 134.461,79.4168 134.5,80.5 Z"/></g>
<g><path style="opacity:1" fill="#f8f8f8" d="M 134.5,80.5 C 134.675,82.6208 134.341,84.6208 133.5,86.5C 130.714,84.9455 127.714,83.6121 124.5,82.5C 124.5,81.1667 124.5,79.8333 124.5,78.5C 127.206,78.4249 129.873,78.0916 132.5,77.5C 132.285,79.1788 132.952,80.1788 134.5,80.5 Z"/></g>
<g><path style="opacity:1" fill="#f5f5f5" d="M 132.5,96.5 C 129.316,100.405 126.316,100.405 123.5,96.5C 118.226,96.3907 116.06,93.724 117,88.5C 119.868,86.8165 123.034,85.8165 126.5,85.5C 127.442,85.6082 128.275,85.9415 129,86.5C 130.459,89.7699 131.626,93.1032 132.5,96.5 Z"/></g>
<g><path style="opacity:1" fill="#040204" d="M 310.5,78.5 C 311.167,101.664 311.5,124.998 311.5,148.5C 311.49,172.382 310.823,196.049 309.5,219.5C 304.5,219.5 299.5,219.5 294.5,219.5C 294.062,219.565 293.728,219.399 293.5,219C 294.416,218.722 295.082,218.222 295.5,217.5C 295.832,173.663 295.499,129.997 294.5,86.5C 294.5,85.8333 294.833,85.5 295.5,85.5C 295.833,85.5 296.167,85.5 296.5,85.5C 296.5,129.5 296.5,173.5 296.5,217.5C 301.167,217.5 305.833,217.5 310.5,217.5C 310.5,171.167 310.5,124.833 310.5,78.5 Z"/></g>
<g><path style="opacity:1" fill="#aeabaa" d="M 309.5,78.5 C 309.833,78.5 310.167,78.5 310.5,78.5C 310.5,124.833 310.5,171.167 310.5,217.5C 305.833,217.5 301.167,217.5 296.5,217.5C 296.5,173.5 296.5,129.5 296.5,85.5C 297.499,128.997 297.832,172.663 297.5,216.5C 301.5,216.5 305.5,216.5 309.5,216.5C 309.5,170.5 309.5,124.5 309.5,78.5 Z"/></g>
<g><path style="opacity:1" fill="#232828" d="M 124.5,82.5 C 127.714,83.6121 130.714,84.9455 133.5,86.5C 132.859,87.4822 132.193,88.4822 131.5,89.5C 133.553,91.7288 133.886,94.0621 132.5,96.5C 131.626,93.1032 130.459,89.7699 129,86.5C 128.275,85.9415 127.442,85.6082 126.5,85.5C 123.034,85.8165 119.868,86.8165 117,88.5C 116.06,93.724 118.226,96.3907 123.5,96.5C 120.635,96.9452 118.135,96.2785 116,94.5C 115.722,95.4158 115.222,96.0825 114.5,96.5C 113.269,89.574 115.936,85.574 122.5,84.5C 123.5,84.1667 124.167,83.5 124.5,82.5 Z"/></g>
<g><path style="opacity:1" fill="#0c7e39" d="M 123.5,96.5 C 123.452,99.2919 124.785,101.125 127.5,102C 126,103.5 124.5,105 123,106.5C 121.113,104.974 120.113,102.974 120,100.5C 119.329,99.7476 118.496,99.4142 117.5,99.5C 116.1,98.8999 115.1,97.8999 114.5,96.5C 115.222,96.0825 115.722,95.4158 116,94.5C 118.135,96.2785 120.635,96.9452 123.5,96.5 Z"/></g>
<g><path style="opacity:1" fill="#15171b" d="M 113.5,100.5 C 112.587,102.562 111.087,102.895 109,101.5C 106.991,101.758 105.157,102.425 103.5,103.5C 103.414,102.504 103.748,101.671 104.5,101C 107.482,100.502 110.482,100.335 113.5,100.5 Z"/></g>
<g><path style="opacity:1" fill="#f5f5f5" d="M 117.5,99.5 C 118.611,102.907 120.444,105.907 123,108.5C 123.372,117.652 119.872,119.652 112.5,114.5C 112.089,112.228 110.922,111.895 109,113.5C 104.34,111.855 102.506,108.521 103.5,103.5C 105.157,102.425 106.991,101.758 109,101.5C 111.087,102.895 112.587,102.562 113.5,100.5C 114.833,100.167 116.167,99.8333 117.5,99.5 Z"/></g>
<g><path style="opacity:1" fill="#1a2229" d="M 123.5,96.5 C 126.316,100.405 129.316,100.405 132.5,96.5C 130.097,100.285 127.43,103.952 124.5,107.5C 124.987,108.446 125.32,109.446 125.5,110.5C 123.676,115.991 120.343,120.324 115.5,123.5C 115.511,121.983 116.177,120.816 117.5,120C 114.727,119.108 113.06,117.275 112.5,114.5C 119.872,119.652 123.372,117.652 123,108.5C 120.444,105.907 118.611,102.907 117.5,99.5C 118.496,99.4142 119.329,99.7476 120,100.5C 120.113,102.974 121.113,104.974 123,106.5C 124.5,105 126,103.5 127.5,102C 124.785,101.125 123.452,99.2919 123.5,96.5 Z"/></g>
<g><path style="opacity:1" fill="#f9f9f9" d="M 62.5,55.5 C 54.5451,60.7282 46.0451,65.0615 37,68.5C 36.257,140.552 37.757,212.552 41.5,284.5C 41.1667,289.833 40.8333,289.833 40.5,284.5C 36.8333,284.5 33.1667,284.5 29.5,284.5C 29.5,279.5 29.5,274.5 29.5,269.5C 24.5,269.5 19.5,269.5 14.5,269.5C 14.5,264.5 14.5,259.5 14.5,254.5C 19.5,254.5 24.5,254.5 29.5,254.5C 29.5,249.5 29.5,244.5 29.5,239.5C 24.5,239.5 19.5,239.5 14.5,239.5C 14.5,234.5 14.5,229.5 14.5,224.5C 19.5,224.5 24.5,224.5 29.5,224.5C 29.5,219.5 29.5,214.5 29.5,209.5C 24.5,209.5 19.5,209.5 14.5,209.5C 14.5,204.5 14.5,199.5 14.5,194.5C 19.5,194.5 24.5,194.5 29.5,194.5C 29.5,189.5 29.5,184.5 29.5,179.5C 24.5,179.5 19.5,179.5 14.5,179.5C 14.5,174.5 14.5,169.5 14.5,164.5C 19.5,164.5 24.5,164.5 29.5,164.5C 29.5,159.5 29.5,154.5 29.5,149.5C 24.5,149.5 19.5,149.5 14.5,149.5C 14.5,144.5 14.5,139.5 14.5,134.5C 19.5,134.5 24.5,134.5 29.5,134.5C 29.5,129.5 29.5,124.5 29.5,119.5C 24.5,119.5 19.5,119.5 14.5,119.5C 14.5,114.5 14.5,109.5 14.5,104.5C 19.5,104.5 24.5,104.5 29.5,104.5C 29.5,99.5 29.5,94.5 29.5,89.5C 24.5,89.5 19.5,89.5 14.5,89.5C 14.5,84.5 14.5,79.5 14.5,74.5C 19.5,74.5 24.5,74.5 29.5,74.5C 29.5,69.5 29.5,64.5 29.5,59.5C 34.5,59.5 39.5,59.5 44.5,59.5C 44.5,54.5 44.5,49.5 44.5,44.5C 49.5,44.5 54.5,44.5 59.5,44.5C 59.3347,48.1817 59.5014,51.8484 60,55.5C 60.9772,54.2264 61.8106,54.2264 62.5,55.5 Z"/></g>
<g><path style="opacity:1" fill="#1e1c1b" d="M 201.5,133.5 C 201.5,134.167 201.167,134.5 200.5,134.5C 199.781,132.236 199.448,129.903 199.5,127.5C 198.5,127.5 197.5,127.5 196.5,127.5C 196.194,130.385 196.527,133.052 197.5,135.5C 198.5,136.167 199.5,136.833 200.5,137.5C 199.5,137.5 198.5,137.5 197.5,137.5C 197.333,165.502 197.5,193.502 198,221.5C 199.5,223 201,224.5 202.5,226C 222.164,226.5 241.831,226.667 261.5,226.5C 261.737,227.791 261.404,228.791 260.5,229.5C 240.831,229.667 221.164,229.5 201.5,229C 199.627,227.296 197.96,225.463 196.5,223.5C 195.432,222.566 194.099,222.232 192.5,222.5C 192.5,226.5 192.5,230.5 192.5,234.5C 192.737,235.791 192.404,236.791 191.5,237.5C 184.018,236.508 176.352,236.175 168.5,236.5C 168.157,238.483 168.824,239.817 170.5,240.5C 171.833,240.5 173.167,240.5 174.5,240.5C 173.432,241.434 172.099,241.768 170.5,241.5C 169.391,241.557 168.391,241.89 167.5,242.5C 167.5,241.5 167.5,240.5 167.5,239.5C 167.5,233.833 167.5,228.167 167.5,222.5C 166.167,222.5 164.833,222.5 163.5,222.5C 163.378,225.292 162.044,227.292 159.5,228.5C 139.164,228.667 118.831,228.5 98.5,228C 118.338,227.832 138.004,227.332 157.5,226.5C 159.463,225.04 161.296,223.373 163,221.5C 163.5,193.502 163.667,165.502 163.5,137.5C 161.585,137.216 159.919,137.549 158.5,138.5C 157.833,138.5 157.5,138.167 157.5,137.5C 158.803,133.618 159.47,129.618 159.5,125.5C 161.5,125.5 163.5,125.5 165.5,125.5C 165.5,157.167 165.5,188.833 165.5,220.5C 166.5,220.5 167.5,220.5 168.5,220.5C 168.333,185.165 168.5,149.832 169,114.5C 169.881,107.404 172.881,101.404 178,96.5C 178.333,90.5 178.667,84.5 179,78.5C 180.395,77.1854 181.395,77.5188 182,79.5C 182.333,85.5 182.667,91.5 183,97.5C 187.212,101.253 189.878,105.92 191,111.5C 191.5,147.832 191.667,184.165 191.5,220.5C 192.833,220.5 194.167,220.5 195.5,220.5C 195.5,188.833 195.5,157.167 195.5,125.5C 197.167,125.5 198.833,125.5 200.5,125.5C 200.575,128.206 200.908,130.873 201.5,133.5 Z"/></g>
<g><path style="opacity:1" fill="#f6f6f6" d="M 178.5,98.5 C 181.263,98.7438 183.429,100.077 185,102.5C 186.793,106.046 188.293,109.713 189.5,113.5C 183.537,114.496 177.537,114.829 171.5,114.5C 172.288,108.46 174.622,103.127 178.5,98.5 Z"/></g>
<g><path style="opacity:1" fill="#068d3e" d="M 71.5,240.5 C 71.5688,243.084 72.7355,245.084 75,246.5C 75.49,247.793 75.6567,249.127 75.5,250.5C 70.6439,251.191 67.9772,254.025 67.5,259C 71.0881,266.937 75.9215,274.104 82,280.5C 82.5664,283.979 81.2331,286.645 78,288.5C 77.1834,291.964 77.5167,295.298 79,298.5C 83.6774,305.516 89.8441,310.683 97.5,314C 93.9961,315.918 90.6628,318.084 87.5,320.5C 90.8273,323.161 93.8273,326.161 96.5,329.5C 94.742,329.877 93.0754,330.544 91.5,331.5C 89.812,330.479 88.4787,329.145 87.5,327.5C 85.8764,324.21 83.5431,321.543 80.5,319.5C 78.0557,320.222 75.7223,321.222 73.5,322.5C 72.0095,320.874 70.5095,319.208 69,317.5C 68.2506,316.365 68.4173,315.365 69.5,314.5C 72.0698,312.386 74.4032,310.053 76.5,307.5C 74.8632,302.893 72.6965,298.56 70,294.5C 66.5649,293.534 63.0649,293.534 59.5,294.5C 59.2756,290.821 58.9422,287.154 58.5,283.5C 61.5,282.833 64.5,282.167 67.5,281.5C 66.7166,274.134 65.7166,266.8 64.5,259.5C 61.1667,259.5 57.8333,259.5 54.5,259.5C 54.5,257.5 54.5,255.5 54.5,253.5C 57.1667,253.5 59.8333,253.5 62.5,253.5C 62.5,246.167 62.5,238.833 62.5,231.5C 59.8333,231.5 57.1667,231.5 54.5,231.5C 54.5,228.833 54.5,226.167 54.5,223.5C 57.8333,223.5 61.1667,223.5 64.5,223.5C 65.1802,229.933 67.5135,235.6 71.5,240.5 Z"/></g>
<g><path style="opacity:1" fill="#1b1b1a" d="M 295.5,85.5 C 294.833,85.5 294.5,85.8333 294.5,86.5C 278.562,78.6858 264.562,68.1858 252.5,55C 243.37,51.55 234.036,48.7166 224.5,46.5C 223.37,49.979 223.37,53.479 224.5,57C 225.723,59.8849 227.889,61.7183 231,62.5C 233.12,69.881 230.62,72.2144 223.5,69.5C 223.407,81.0128 219.907,91.3461 213,100.5C 211.959,114.615 209.459,128.448 205.5,142C 206.094,144.79 207.261,147.29 209,149.5C 210.444,151.155 212.278,151.822 214.5,151.5C 214.5,155.167 214.5,158.833 214.5,162.5C 212.5,162.5 210.5,162.5 208.5,162.5C 208.5,163.5 208.5,164.5 208.5,165.5C 209.5,165.5 210.5,165.5 211.5,165.5C 211.5,167.833 211.5,170.167 211.5,172.5C 213.5,172.5 215.5,172.5 217.5,172.5C 217.5,174.5 217.5,176.5 217.5,178.5C 219.167,178.5 220.833,178.5 222.5,178.5C 222.183,181.572 222.516,184.572 223.5,187.5C 233.965,197.397 245.965,204.73 259.5,209.5C 259.533,205.08 259.367,200.746 259,196.5C 265.128,203.041 265.795,202.375 261,194.5C 259.463,188.982 257.963,183.482 256.5,178C 256.667,177.167 256.833,176.333 257,175.5C 258.107,178.52 259.941,179.853 262.5,179.5C 257.258,172.264 254.091,164.264 253,155.5C 254.167,156.667 255.333,157.833 256.5,159C 257.332,159.688 257.998,159.521 258.5,158.5C 251.731,151.629 247.731,143.629 246.5,134.5C 247.981,135.48 249.315,136.647 250.5,138C 251.167,138.667 251.833,138.667 252.5,138C 245.699,131.202 240.866,123.369 238,114.5C 240.448,116.998 243.281,118.498 246.5,119C 238.911,112.576 232.578,105.076 227.5,96.5C 227.833,96.1667 228.167,95.8333 228.5,95.5C 232.039,97.9651 235.873,99.9651 240,101.5C 240.5,101.167 241,100.833 241.5,100.5C 234.294,92.8275 230.127,83.8275 229,73.5C 234.667,78.1667 240.333,82.8333 246,87.5C 248.215,90.5961 249.881,93.9295 251,97.5C 251.171,92.1358 251.671,86.8025 252.5,81.5C 253.086,81.7093 253.586,82.0426 254,82.5C 258.524,89.9308 261.524,97.9308 263,106.5C 263.915,105.672 264.581,104.672 265,103.5C 269.413,110.865 272.079,118.865 273,127.5C 273.419,126.328 274.085,125.328 275,124.5C 278.283,133.862 279.949,143.529 280,153.5C 281,151.833 282,150.167 283,148.5C 285.503,158.06 286.17,167.727 285,177.5C 286,176.167 287,174.833 288,173.5C 289.818,180.939 289.985,188.439 288.5,196C 288.421,200.185 289.588,200.352 292,196.5C 292.892,203.627 292.392,210.627 290.5,217.5C 292.167,217.5 293.833,217.5 295.5,217.5C 295.082,218.222 294.416,218.722 293.5,219C 293.728,219.399 294.062,219.565 294.5,219.5C 298.715,221.436 303.381,222.103 308.5,221.5C 308.5,225.5 308.5,229.5 308.5,233.5C 305.833,233.5 303.167,233.5 300.5,233.5C 300.5,239.167 300.5,244.833 300.5,250.5C 303.5,250.5 306.5,250.5 309.5,250.5C 309.5,254.833 309.5,259.167 309.5,263.5C 305.5,263.5 301.5,263.5 297.5,263.5C 296.866,269.145 296.532,274.811 296.5,280.5C 300.027,280.396 303.027,281.563 305.5,284C 304.111,288.392 303.111,292.892 302.5,297.5C 298.918,296.734 295.418,296.734 292,297.5C 290.496,300.684 288.996,303.851 287.5,307C 289.679,309.511 292.179,311.678 295,313.5C 295.667,314.833 295.667,316.167 295,317.5C 292.659,320.671 290.159,323.671 287.5,326.5C 285.571,325.62 283.737,324.62 282,323.5C 278.331,326.011 275.498,329.345 273.5,333.5C 273.957,334.298 274.624,334.631 275.5,334.5C 274.5,335.167 273.5,335.833 272.5,336.5C 271.29,336.068 270.29,335.401 269.5,334.5C 269.5,333.5 269.5,332.5 269.5,331.5C 272.842,328.008 275.842,324.175 278.5,320C 281.165,320.48 283.831,321.313 286.5,322.5C 289.611,320.581 291.445,317.914 292,314.5C 288.667,312.753 285.833,310.42 283.5,307.5C 285.881,302.738 288.214,298.071 290.5,293.5C 293.86,293.616 297.193,293.949 300.5,294.5C 301.135,291.127 301.635,287.794 302,284.5C 299.093,283.569 296.26,282.569 293.5,281.5C 293.57,274.744 294.404,268.077 296,261.5C 299.394,260.544 302.894,260.211 306.5,260.5C 306.5,258.167 306.5,255.833 306.5,253.5C 303.5,253.5 300.5,253.5 297.5,253.5C 298.221,246.533 298.721,239.533 299,232.5C 301.041,231.577 303.208,231.244 305.5,231.5C 305.5,229.167 305.5,226.833 305.5,224.5C 301.5,224.5 297.5,224.5 293.5,224.5C 292.988,233.367 290.654,241.701 286.5,249.5C 286.667,249.833 286.833,250.167 287,250.5C 289,248.5 291,246.5 293,244.5C 292.199,254.24 289.366,263.406 284.5,272C 286.417,271.973 288.084,271.139 289.5,269.5C 289.833,270 290.167,270.5 290.5,271C 287.816,280.535 283.649,289.368 278,297.5C 275.033,300.401 271.533,302.401 267.5,303.5C 265.199,306.621 263.199,309.954 261.5,313.5C 262.901,314.521 264.235,315.521 265.5,316.5C 265.167,317.167 264.833,317.833 264.5,318.5C 233.637,303.261 200.97,296.594 166.5,298.5C 196.254,295.775 225.087,300.109 253,311.5C 256.347,309.318 259.181,306.651 261.5,303.5C 262.043,303.44 262.376,303.107 262.5,302.5C 257.88,301.507 253.214,301.173 248.5,301.5C 240.024,300.471 231.69,298.805 223.5,296.5C 218.516,297.045 213.516,297.378 208.5,297.5C 202.914,297.682 197.58,297.015 192.5,295.5C 203.051,296.997 213.551,296.663 224,294.5C 235.525,298.646 247.358,300.313 259.5,299.5C 257.786,296.701 256.453,293.701 255.5,290.5C 244.601,290.487 234.101,288.487 224,284.5C 208.896,287.994 194.229,286.661 180,280.5C 165.727,286.349 151.06,287.683 136,284.5C 127.494,287.835 118.661,289.501 109.5,289.5C 110.207,292.786 110.54,296.119 110.5,299.5C 119.259,299.179 127.759,297.512 136,294.5C 144.417,296.162 152.917,296.829 161.5,296.5C 153.321,297.757 144.988,297.757 136.5,296.5C 128.29,298.809 119.957,300.475 111.5,301.5C 111.896,304.482 111.229,307.149 109.5,309.5C 109.833,309.833 110.167,310.167 110.5,310.5C 119.514,306.581 128.847,303.914 138.5,302.5C 123.327,306.563 108.66,312.23 94.5,319.5C 93.1667,320.5 93.1667,321.5 94.5,322.5C 99.0178,326.852 103.684,331.019 108.5,335C 112.015,335.087 115.348,334.254 118.5,332.5C 118.5,333.167 118.833,333.5 119.5,333.5C 117.151,335.341 114.485,336.674 111.5,337.5C 110.458,336.209 109.292,336.209 108,337.5C 106.959,335.689 105.793,335.355 104.5,336.5C 102.203,334.706 100.037,332.706 98,330.5C 97.6174,331.056 97.1174,331.389 96.5,331.5C 96.5,330.833 96.5,330.167 96.5,329.5C 93.8273,326.161 90.8273,323.161 87.5,320.5C 90.6628,318.084 93.9961,315.918 97.5,314C 89.8441,310.683 83.6774,305.516 79,298.5C 77.5167,295.298 77.1834,291.964 78,288.5C 81.2331,286.645 82.5664,283.979 82,280.5C 75.9215,274.104 71.0881,266.937 67.5,259C 67.9772,254.025 70.6439,251.191 75.5,250.5C 75.6567,249.127 75.49,247.793 75,246.5C 72.7355,245.084 71.5688,243.084 71.5,240.5C 67.5135,235.6 65.1802,229.933 64.5,223.5C 61.1667,223.5 57.8333,223.5 54.5,223.5C 54.5,226.167 54.5,228.833 54.5,231.5C 57.1667,231.5 59.8333,231.5 62.5,231.5C 62.5,238.833 62.5,246.167 62.5,253.5C 59.8333,253.5 57.1667,253.5 54.5,253.5C 54.5,255.5 54.5,257.5 54.5,259.5C 57.8333,259.5 61.1667,259.5 64.5,259.5C 65.7166,266.8 66.7166,274.134 67.5,281.5C 64.5,282.167 61.5,282.833 58.5,283.5C 58.9422,287.154 59.2756,290.821 59.5,294.5C 63.0649,293.534 66.5649,293.534 70,294.5C 72.6965,298.56 74.8632,302.893 76.5,307.5C 74.4032,310.053 72.0698,312.386 69.5,314.5C 68.4173,315.365 68.2506,316.365 69,317.5C 70.5095,319.208 72.0095,320.874 73.5,322.5C 75.7223,321.222 78.0557,320.222 80.5,319.5C 83.5431,321.543 85.8764,324.21 87.5,327.5C 86.7784,327.918 86.2784,328.584 86,329.5C 85.5831,328.244 84.7498,327.577 83.5,327.5C 82.4281,325.429 80.7615,324.095 78.5,323.5C 76.0327,324.421 73.6994,325.255 71.5,326C 68.8736,322.228 66.707,318.395 65,314.5C 67.7019,312.093 70.2019,309.593 72.5,307C 71.2642,303.793 69.9308,300.626 68.5,297.5C 64.8614,296.54 61.1947,296.54 57.5,297.5C 56.8333,292.5 56.1667,287.5 55.5,282.5C 58.1667,281.833 60.8333,281.167 63.5,280.5C 63.687,274.788 63.3537,269.121 62.5,263.5C 58.8333,263.5 55.1667,263.5 51.5,263.5C 51.5,259.167 51.5,254.833 51.5,250.5C 54.1667,250.5 56.8333,250.5 59.5,250.5C 59.5,244.833 59.5,239.167 59.5,233.5C 57.1667,233.5 54.8333,233.5 52.5,233.5C 52.5,229.5 52.5,225.5 52.5,221.5C 56.8839,221.826 61.2172,221.492 65.5,220.5C 65.3764,219.893 65.0431,219.56 64.5,219.5C 64.3284,218.508 64.6618,217.842 65.5,217.5C 68.0037,216.361 70.6703,215.694 73.5,215.5C 72.4332,211.468 71.4332,207.468 70.5,203.5C 68.8916,200.79 67.7249,197.79 67,194.5C 65.5385,186.13 69.0385,181.797 77.5,181.5C 76.0143,176.706 75.1809,171.706 75,166.5C 73.4605,160.285 74.6271,154.785 78.5,150C 81.4262,149.782 84.2595,149.282 87,148.5C 85.3841,140.291 85.7175,131.958 88,123.5C 90.6441,118.925 94.4774,117.258 99.5,118.5C 100.324,115.215 100.824,111.882 101,108.5C 101.374,106.509 102.207,104.842 103.5,103.5C 102.506,108.521 104.34,111.855 109,113.5C 110.922,111.895 112.089,112.228 112.5,114.5C 109.276,114.797 106.276,114.13 103.5,112.5C 102.054,113.171 101.388,114.338 101.5,116C 101.528,117.07 101.861,117.903 102.5,118.5C 102.189,119.478 101.522,120.145 100.5,120.5C 96.1107,118.588 92.6107,119.588 90,123.5C 88.8351,131.67 92.1685,135.003 100,133.5C 101.701,136.702 104.201,139.035 107.5,140.5C 113.811,138.879 116.311,134.879 115,128.5C 111.506,126.527 110.006,123.527 110.5,119.5C 111.29,120.609 111.79,121.942 112,123.5C 112.671,124.252 113.504,124.586 114.5,124.5C 114.685,126.196 115.519,127.529 117,128.5C 117.667,130.5 117.667,132.5 117,134.5C 112.271,141.236 106.771,147.403 100.5,153C 104.277,155.955 105.443,159.788 104,164.5C 100.452,171.099 96.2856,177.265 91.5,183C 95.5261,183.888 97.5261,186.388 97.5,190.5C 95.8278,198.182 93.1612,205.516 89.5,212.5C 91.0026,213.052 92.6693,213.052 94.5,212.5C 93.3998,213.558 92.0664,214.392 90.5,215C 94.8111,217.79 96.1445,221.624 94.5,226.5C 94.8333,226.833 95.1667,227.167 95.5,227.5C 96.2508,226.624 96.7508,225.624 97,224.5C 97.2784,225.416 97.7784,226.082 98.5,226.5C 118.167,226.5 137.833,226.5 157.5,226.5C 138.004,227.332 118.338,227.832 98.5,228C 118.831,228.5 139.164,228.667 159.5,228.5C 138.004,229.332 116.337,229.832 94.5,230C 93.4329,234.897 92.0995,239.73 90.5,244.5C 93.8907,245.438 96.3907,247.438 98,250.5C 99.3507,256.072 99.8507,261.738 99.5,267.5C 111.454,268.604 122.954,266.937 134,262.5C 143.885,263.983 153.718,263.817 163.5,262C 161.187,261.359 159.52,260.026 158.5,258C 162.946,252.472 165.946,246.305 167.5,239.5C 167.5,240.5 167.5,241.5 167.5,242.5C 167.577,243.75 168.244,244.583 169.5,245C 177.195,245.691 184.861,245.525 192.5,244.5C 192.5,243.5 192.5,242.5 192.5,241.5C 185.025,242.743 177.692,242.743 170.5,241.5C 172.099,241.768 173.432,241.434 174.5,240.5C 180.167,240.5 185.833,240.5 191.5,240.5C 191.5,239.5 191.5,238.5 191.5,237.5C 192.404,236.791 192.737,235.791 192.5,234.5C 192.833,234.5 193.167,234.5 193.5,234.5C 193.326,243.519 196.326,251.186 202.5,257.5C 201.167,259.5 199.5,261.167 197.5,262.5C 207.018,263.795 216.518,263.795 226,262.5C 229.429,263.472 232.596,264.805 235.5,266.5C 241.501,267.643 247.501,267.643 253.5,266.5C 254.23,263.891 254.73,261.224 255,258.5C 256.413,261.661 258.08,264.661 260,267.5C 259.517,263.209 258.851,258.876 258,254.5C 257.333,248.833 257.333,243.167 258,237.5C 259.752,240.672 261.752,243.672 264,246.5C 264.167,246.167 264.333,245.833 264.5,245.5C 261.911,240.477 260.578,235.144 260.5,229.5C 261.404,228.791 261.737,227.791 261.5,226.5C 261.833,226.5 262.167,226.5 262.5,226.5C 262.614,234.571 264.448,242.237 268,249.5C 269.667,251.167 271.333,252.833 273,254.5C 275.161,248.747 274.828,243.08 272,237.5C 268.97,232.985 265.803,228.651 262.5,224.5C 259.838,222.732 256.838,222.065 253.5,222.5C 253.67,221.178 253.337,220.011 252.5,219C 243.814,218.832 235.148,218.332 226.5,217.5C 224.333,213.057 220.666,211.224 215.5,212C 213.431,209.466 210.765,208.299 207.5,208.5C 207.5,205.167 207.5,201.833 207.5,198.5C 209.167,198.5 210.833,198.5 212.5,198.5C 211.801,196.005 210.801,193.672 209.5,191.5C 211.167,191.5 212.833,191.5 214.5,191.5C 214.5,190.5 214.5,189.5 214.5,188.5C 213.022,188.762 211.689,188.429 210.5,187.5C 213.086,186.52 215.753,186.187 218.5,186.5C 218.5,184.833 218.5,183.167 218.5,181.5C 215.833,181.5 213.167,181.5 210.5,181.5C 210.5,180.5 210.5,179.5 210.5,178.5C 211.833,178.5 213.167,178.5 214.5,178.5C 214.5,177.167 214.5,175.833 214.5,174.5C 212.5,174.5 210.5,174.5 208.5,174.5C 208.993,172.194 209.326,169.861 209.5,167.5C 208.178,167.67 207.011,167.337 206,166.5C 205.023,164.26 204.523,161.927 204.5,159.5C 206.833,159.5 209.167,159.5 211.5,159.5C 211.5,157.5 211.5,155.5 211.5,153.5C 208.753,153.813 206.086,153.48 203.5,152.5C 204.833,151.833 206.167,151.167 207.5,150.5C 206.376,149.086 205.376,147.586 204.5,146C 198.659,145.437 198.326,144.27 203.5,142.5C 202.725,140.604 201.725,138.937 200.5,137.5C 199.5,136.833 198.5,136.167 197.5,135.5C 198.791,135.737 199.791,135.404 200.5,134.5C 201.167,134.5 201.5,134.167 201.5,133.5C 203.883,140.293 205.717,139.96 207,132.5C 209.087,121.631 210.421,110.631 211,99.5C 217.901,89.9653 221.734,79.2986 222.5,67.5C 224.833,67.5 227.167,67.5 229.5,67.5C 229.657,66.1266 229.49,64.7932 229,63.5C 226.912,62.6919 224.912,61.6919 223,60.5C 222.199,54.835 221.866,49.1683 222,43.5C 232.627,46.117 243.127,49.2837 253.5,53C 265.328,66.664 279.328,77.4974 295.5,85.5 Z"/></g>
<g><path style="opacity:1" fill="#078a3d" d="M 269.5,331.5 C 267.355,331.262 265.688,330.262 264.5,328.5C 267.5,326.167 270.167,323.5 272.5,320.5C 270.847,318.053 268.513,316.72 265.5,316.5C 264.235,315.521 262.901,314.521 261.5,313.5C 263.199,309.954 265.199,306.621 267.5,303.5C 271.533,302.401 275.033,300.401 278,297.5C 283.649,289.368 287.816,280.535 290.5,271C 290.167,270.5 289.833,270 289.5,269.5C 288.084,271.139 286.417,271.973 284.5,272C 289.366,263.406 292.199,254.24 293,244.5C 291,246.5 289,248.5 287,250.5C 286.833,250.167 286.667,249.833 286.5,249.5C 290.654,241.701 292.988,233.367 293.5,224.5C 297.5,224.5 301.5,224.5 305.5,224.5C 305.5,226.833 305.5,229.167 305.5,231.5C 303.208,231.244 301.041,231.577 299,232.5C 298.721,239.533 298.221,246.533 297.5,253.5C 300.5,253.5 303.5,253.5 306.5,253.5C 306.5,255.833 306.5,258.167 306.5,260.5C 302.894,260.211 299.394,260.544 296,261.5C 294.404,268.077 293.57,274.744 293.5,281.5C 296.26,282.569 299.093,283.569 302,284.5C 301.635,287.794 301.135,291.127 300.5,294.5C 297.193,293.949 293.86,293.616 290.5,293.5C 288.214,298.071 285.881,302.738 283.5,307.5C 285.833,310.42 288.667,312.753 292,314.5C 291.445,317.914 289.611,320.581 286.5,322.5C 283.831,321.313 281.165,320.48 278.5,320C 275.842,324.175 272.842,328.008 269.5,331.5 Z"/></g>
<g><path style="opacity:1" fill="#fbf307" d="M 196.5,223.5 C 197.96,225.463 199.627,227.296 201.5,229C 221.164,229.5 240.831,229.667 260.5,229.5C 260.578,235.144 261.911,240.477 264.5,245.5C 264.333,245.833 264.167,246.167 264,246.5C 261.752,243.672 259.752,240.672 258,237.5C 257.333,243.167 257.333,248.833 258,254.5C 258.851,258.876 259.517,263.209 260,267.5C 258.08,264.661 256.413,261.661 255,258.5C 254.73,261.224 254.23,263.891 253.5,266.5C 247.501,267.643 241.501,267.643 235.5,266.5C 232.596,264.805 229.429,263.472 226,262.5C 216.518,263.795 207.018,263.795 197.5,262.5C 199.5,261.167 201.167,259.5 202.5,257.5C 196.326,251.186 193.326,243.519 193.5,234.5C 193.5,230.833 193.5,227.167 193.5,223.5C 194.5,223.5 195.5,223.5 196.5,223.5 Z"/></g>
<g><path style="opacity:1" fill="#fcf405" d="M 167.5,239.5 C 165.946,246.305 162.946,252.472 158.5,258C 159.52,260.026 161.187,261.359 163.5,262C 153.718,263.817 143.885,263.983 134,262.5C 122.954,266.937 111.454,268.604 99.5,267.5C 99.8507,261.738 99.3507,256.072 98,250.5C 96.3907,247.438 93.8907,245.438 90.5,244.5C 92.0995,239.73 93.4329,234.897 94.5,230C 116.337,229.832 138.004,229.332 159.5,228.5C 162.044,227.292 163.378,225.292 163.5,222.5C 164.833,222.5 166.167,222.5 167.5,222.5C 167.5,228.167 167.5,233.833 167.5,239.5 Z"/></g>
<g><path style="opacity:1" fill="#dcdcdc" d="M 185.5,222.5 C 187.5,222.5 189.5,222.5 191.5,222.5C 191.5,224.5 191.5,226.5 191.5,228.5C 189.5,228.5 187.5,228.5 185.5,228.5C 185.5,226.5 185.5,224.5 185.5,222.5 Z"/></g>
<g><path style="opacity:1" fill="#e3e3e3" d="M 176.5,222.5 C 179.167,222.5 181.833,222.5 184.5,222.5C 184.5,224.5 184.5,226.5 184.5,228.5C 181.833,228.5 179.167,228.5 176.5,228.5C 176.5,226.5 176.5,224.5 176.5,222.5 Z"/></g>
<g><path style="opacity:1" fill="#dddcdc" d="M 168.5,222.5 C 170.5,222.5 172.5,222.5 174.5,222.5C 174.5,224.5 174.5,226.5 174.5,228.5C 172.5,228.5 170.5,228.5 168.5,228.5C 168.5,226.5 168.5,224.5 168.5,222.5 Z"/></g>
<g><path style="opacity:1" fill="#1177af" d="M 272.5,211.5 C 273.919,210.549 275.585,210.216 277.5,210.5C 277.322,216.61 275.655,216.943 272.5,211.5 Z"/></g>
<g><path style="opacity:1" fill="#fafaf9" d="M 77.5,210.5 C 82.0687,213.892 87.0687,216.559 92.5,218.5C 95.2731,227.174 92.2731,231.008 83.5,230C 82.6667,229.167 81.8333,228.333 81,227.5C 76.3333,232.833 71.6667,232.833 67,227.5C 65.4115,220.99 67.9115,217.657 74.5,217.5C 74.1496,214.547 75.1496,212.213 77.5,210.5 Z"/></g>
<g><path style="opacity:1" fill="#116c9e" d="M 279.5,208.5 C 280.675,208.281 281.675,208.614 282.5,209.5C 279.379,214.908 278.379,214.574 279.5,208.5 Z"/></g>
<g><path style="opacity:1" fill="#f3ed0a" d="M 262.5,203.5 C 267.566,208.074 271.733,213.407 275,219.5C 278.021,234.369 275.354,235.369 267,222.5C 264.356,216.41 262.856,210.076 262.5,203.5 Z"/></g>
<g><path style="opacity:1" fill="#f7f109" d="M 289.5,202.5 C 290.326,211.526 288.493,220.192 284,228.5C 282.286,229.925 280.953,229.592 280,227.5C 279.333,224.5 279.333,221.5 280,218.5C 282.597,212.758 285.763,207.424 289.5,202.5 Z"/></g>
<g><path style="opacity:1" fill="#078b3d" d="M 70.5,203.5 C 69.8328,198.524 71.6662,197.191 76,199.5C 78.1454,199.604 79.9788,198.937 81.5,197.5C 84.2605,200.199 87.5938,201.533 91.5,201.5C 91.3285,206.177 89.3285,209.844 85.5,212.5C 83.9984,211.917 82.6651,211.084 81.5,210C 79.102,209.626 76.7687,209.626 74.5,210C 72.7518,207.987 71.4185,205.82 70.5,203.5 Z"/></g>
<g><path style="opacity:1" fill="#0d8fd4" d="M 271.5,189.5 C 272.568,188.566 273.901,188.232 275.5,188.5C 275.898,194.598 274.565,194.931 271.5,189.5 Z"/></g>
<g><path style="opacity:1" fill="#f7f208" d="M 260.5,182.5 C 265.497,186.664 269.997,191.331 274,196.5C 275.606,200.45 275.773,204.45 274.5,208.5C 269.008,204.833 265.175,199.833 263,193.5C 261.85,189.888 261.017,186.222 260.5,182.5 Z"/></g>
<g><path style="opacity:1" fill="#f4ee0a" d="M 285.5,178.5 C 288.233,186.711 287.733,195.045 284,203.5C 281.902,207.484 280.235,207.151 279,202.5C 278.333,199.833 278.333,197.167 279,194.5C 281.456,189.259 283.623,183.925 285.5,178.5 Z"/></g>
<g><path style="opacity:1" fill="#f9f9f9" d="M 80.5,178.5 C 85.2936,177.627 87.627,179.627 87.5,184.5C 94.3694,184.538 96.8694,187.871 95,194.5C 91.3938,200.783 87.2271,201.116 82.5,195.5C 73.4794,199.94 68.9794,197.274 69,187.5C 70.9344,184.312 73.7677,182.812 77.5,183C 78.3862,181.385 79.3862,179.885 80.5,178.5 Z"/></g>
<g><path style="opacity:1" fill="#1088c7" d="M 266.5,166.5 C 267.919,165.549 269.585,165.216 271.5,165.5C 272.167,167.819 272.334,170.153 272,172.5C 270.669,170.004 268.836,168.004 266.5,166.5 Z"/></g>
<g><path style="opacity:1" fill="#f3ed0b" d="M 256.5,160.5 C 260.499,164.33 264.665,167.997 269,171.5C 272.203,175.608 273.703,180.275 273.5,185.5C 269.209,184.764 266.042,182.431 264,178.5C 260.109,173.056 257.609,167.056 256.5,160.5 Z"/></g>
<g><path style="opacity:1" fill="#078b3d" d="M 76.5,165.5 C 80.819,166.035 85.1523,166.535 89.5,167C 91.2037,169.547 93.537,171.047 96.5,171.5C 95.6679,175.814 93.3345,179.147 89.5,181.5C 88.6184,180.24 87.6184,179.074 86.5,178C 83.7689,176.67 81.1023,176.17 78.5,176.5C 76.7758,173.05 76.1091,169.383 76.5,165.5 Z"/></g>
<g><path style="opacity:1" fill="#f5ef0a" d="M 280.5,155.5 C 281.931,155.881 282.764,156.881 283,158.5C 284.011,166 283.345,173.333 281,180.5C 280.311,181.357 279.478,182.023 278.5,182.5C 276.738,179.799 275.738,176.799 275.5,173.5C 276.595,167.319 278.261,161.319 280.5,155.5 Z"/></g>
<g><path style="opacity:1" fill="#f7f7f7" d="M 90.5,146.5 C 94.4483,147.115 96.7816,149.448 97.5,153.5C 102.259,155.653 103.759,159.32 102,164.5C 99.9473,168.292 96.7806,169.458 92.5,168C 91.2125,166.59 90.0458,165.09 89,163.5C 83.9643,166.741 79.9643,165.741 77,160.5C 76.3744,153.125 79.8744,149.625 87.5,150C 88.7101,148.961 89.7101,147.794 90.5,146.5 Z"/></g>
<g><path style="opacity:1" fill="#f2ed0c" d="M 250.5,140.5 C 260.009,144.673 266.342,151.673 269.5,161.5C 269.167,162.167 268.833,162.833 268.5,163.5C 259.554,158.212 253.554,150.545 250.5,140.5 Z"/></g>
<g><path style="opacity:1" fill="#f0ec10" d="M 273.5,132.5 C 274.79,133.058 275.623,134.058 276,135.5C 277.496,142.099 277.829,148.766 277,155.5C 275.765,160.151 274.098,160.484 272,156.5C 271.107,153.567 270.607,150.567 270.5,147.5C 271.292,142.457 272.292,137.457 273.5,132.5 Z"/></g>
<g><path style="opacity:1" fill="#136c9c" d="M 266.5,139.5 C 267.5,139.5 268.5,139.5 269.5,139.5C 269.029,145.996 268.029,145.996 266.5,139.5 Z"/></g>
<g><path style="opacity:1" fill="#0e84c3" d="M 260.5,144.5 C 265.786,142.624 267.953,144.624 267,150.5C 265.615,147.614 263.449,145.614 260.5,144.5 Z"/></g>
<g><path style="opacity:1" fill="#9baebd" d="M 200.5,137.5 C 201.725,138.937 202.725,140.604 203.5,142.5C 198.326,144.27 198.659,145.437 204.5,146C 205.376,147.586 206.376,149.086 207.5,150.5C 206.167,151.167 204.833,151.833 203.5,152.5C 206.086,153.48 208.753,153.813 211.5,153.5C 211.5,155.5 211.5,157.5 211.5,159.5C 209.167,159.5 206.833,159.5 204.5,159.5C 204.523,161.927 205.023,164.26 206,166.5C 207.011,167.337 208.178,167.67 209.5,167.5C 209.326,169.861 208.993,172.194 208.5,174.5C 210.5,174.5 212.5,174.5 214.5,174.5C 214.5,175.833 214.5,177.167 214.5,178.5C 213.167,178.5 211.833,178.5 210.5,178.5C 210.5,179.5 210.5,180.5 210.5,181.5C 213.167,181.5 215.833,181.5 218.5,181.5C 218.5,183.167 218.5,184.833 218.5,186.5C 215.753,186.187 213.086,186.52 210.5,187.5C 211.689,188.429 213.022,188.762 214.5,188.5C 214.5,189.5 214.5,190.5 214.5,191.5C 212.833,191.5 211.167,191.5 209.5,191.5C 210.801,193.672 211.801,196.005 212.5,198.5C 210.833,198.5 209.167,198.5 207.5,198.5C 207.5,201.833 207.5,205.167 207.5,208.5C 210.765,208.299 213.431,209.466 215.5,212C 220.666,211.224 224.333,213.057 226.5,217.5C 235.148,218.332 243.814,218.832 252.5,219C 253.337,220.011 253.67,221.178 253.5,222.5C 256.838,222.065 259.838,222.732 262.5,224.5C 262.5,225.167 262.5,225.833 262.5,226.5C 262.167,226.5 261.833,226.5 261.5,226.5C 241.831,226.667 222.164,226.5 202.5,226C 201,224.5 199.5,223 198,221.5C 197.5,193.502 197.333,165.502 197.5,137.5C 198.5,137.5 199.5,137.5 200.5,137.5 Z"/></g>
<g><path style="opacity:1" fill="#99adbc" d="M 157.5,226.5 C 137.833,226.5 118.167,226.5 98.5,226.5C 98.33,225.178 98.6634,224.011 99.5,223C 101.833,222.667 104.167,222.333 106.5,222C 107.337,220.989 107.67,219.822 107.5,218.5C 116.173,218.666 124.84,218.5 133.5,218C 134.5,216.333 135.5,214.667 136.5,213C 139.5,212.667 142.5,212.333 145.5,212C 147.067,209.259 149.401,208.092 152.5,208.5C 152.5,205.167 152.5,201.833 152.5,198.5C 150.833,198.5 149.167,198.5 147.5,198.5C 148.199,196.005 149.199,193.672 150.5,191.5C 149.167,191.5 147.833,191.5 146.5,191.5C 146.5,190.5 146.5,189.5 146.5,188.5C 147.675,188.719 148.675,188.386 149.5,187.5C 147.257,186.526 144.924,186.192 142.5,186.5C 142.5,184.833 142.5,183.167 142.5,181.5C 145.167,181.5 147.833,181.5 150.5,181.5C 150.5,180.5 150.5,179.5 150.5,178.5C 148.833,178.5 147.167,178.5 145.5,178.5C 145.5,177.167 145.5,175.833 145.5,174.5C 147.833,174.5 150.167,174.5 152.5,174.5C 151.551,172.263 150.884,169.929 150.5,167.5C 151.978,167.762 153.311,167.429 154.5,166.5C 155.167,164.5 155.833,162.5 156.5,160.5C 154.257,159.526 151.924,159.192 149.5,159.5C 149.5,157.5 149.5,155.5 149.5,153.5C 152.247,153.813 154.914,153.48 157.5,152.5C 156.167,151.833 154.833,151.167 153.5,150.5C 154.424,146.919 156.757,144.919 160.5,144.5C 159.675,143.614 158.675,143.281 157.5,143.5C 157.629,141.784 157.962,140.117 158.5,138.5C 159.919,137.549 161.585,137.216 163.5,137.5C 163.667,165.502 163.5,193.502 163,221.5C 161.296,223.373 159.463,225.04 157.5,226.5 Z"/></g>
<g><path style="opacity:1" fill="#078c3e" d="M 88.5,132.5 C 89.9311,133.082 91.2644,133.915 92.5,135C 95.2263,135.182 97.8929,135.682 100.5,136.5C 102.455,138.826 104.455,141.159 106.5,143.5C 103.363,150.969 99.3627,151.803 94.5,146C 92.5,145.667 90.5,145.333 88.5,145C 87.3414,140.881 87.3414,136.714 88.5,132.5 Z"/></g>
<g><path style="opacity:1" fill="#8f959a" d="M 200.5,134.5 C 199.791,135.404 198.791,135.737 197.5,135.5C 196.527,133.052 196.194,130.385 196.5,127.5C 197.5,127.5 198.5,127.5 199.5,127.5C 199.448,129.903 199.781,132.236 200.5,134.5 Z"/></g>
<g><path style="opacity:1" fill="#c2c4c5" d="M 189.5,128.5 C 188.5,128.5 187.5,128.5 186.5,128.5C 186.5,159.167 186.5,189.833 186.5,220.5C 185.502,189.671 185.169,158.671 185.5,127.5C 187.099,127.232 188.432,127.566 189.5,128.5 Z"/></g>
<g><path style="opacity:1" fill="#b2b3b4" d="M 183.5,220.5 C 182.833,97.8333 182.167,97.8333 181.5,220.5C 180.502,189.671 180.169,158.671 180.5,127.5C 181.833,127.5 183.167,127.5 184.5,127.5C 184.831,158.671 184.498,189.671 183.5,220.5 Z"/></g>
<g><path style="opacity:1" fill="#fbfbfa" d="M 189.5,128.5 C 189.5,159.167 189.5,189.833 189.5,220.5C 188.5,220.5 187.5,220.5 186.5,220.5C 186.5,189.833 186.5,159.167 186.5,128.5C 187.5,128.5 188.5,128.5 189.5,128.5 Z"/></g>
<g><path style="opacity:1" fill="#fefffe" d="M 183.5,220.5 C 182.833,220.5 182.167,220.5 181.5,220.5C 182.167,97.8333 182.833,97.8333 183.5,220.5 Z"/></g>
<g><path style="opacity:1" fill="#fefefe" d="M 176.5,127.5 C 177.5,127.5 178.5,127.5 179.5,127.5C 179.5,158.5 179.5,189.5 179.5,220.5C 178.5,220.5 177.5,220.5 176.5,220.5C 176.5,189.5 176.5,158.5 176.5,127.5 Z"/></g>
<g><path style="opacity:1" fill="#fefefe" d="M 174.5,127.5 C 174.5,158.5 174.5,189.5 174.5,220.5C 173.5,220.5 172.5,220.5 171.5,220.5C 171.5,189.5 171.5,158.5 171.5,127.5C 172.5,127.5 173.5,127.5 174.5,127.5 Z"/></g>
<g><path style="opacity:1" fill="#9fadb8" d="M 161.5,127.5 C 163.369,129.635 164.036,132.302 163.5,135.5C 162.5,135.5 161.5,135.5 160.5,135.5C 160.833,132.833 161.167,130.167 161.5,127.5 Z"/></g>
<g><path style="opacity:1" fill="#eae710" d="M 242.5,119.5 C 249.701,122.845 255.867,127.512 261,133.5C 265.155,142.011 263.321,143.511 255.5,138C 249.754,132.766 245.421,126.599 242.5,119.5 Z"/></g>
<g><path style="opacity:1" fill="#3c3934" d="M 174.5,127.5 C 175.167,127.5 175.833,127.5 176.5,127.5C 176.5,158.5 176.5,189.5 176.5,220.5C 175.833,220.5 175.167,220.5 174.5,220.5C 174.5,189.5 174.5,158.5 174.5,127.5 Z"/></g>
<g><path style="opacity:1" fill="#1083c0" d="M 251.5,122.5 C 256.985,120.101 259.319,121.768 258.5,127.5C 256.313,125.578 253.98,123.912 251.5,122.5 Z"/></g>
<g><path style="opacity:1" fill="#12557d" d="M 257.5,116.5 C 258.833,116.5 260.167,116.5 261.5,116.5C 261.143,125.518 259.809,125.518 257.5,116.5 Z"/></g>
<g><path style="opacity:1" fill="#f3f3f3" d="M 171.5,116.5 C 177.5,116.5 183.5,116.5 189.5,116.5C 189.5,119.5 189.5,122.5 189.5,125.5C 183.5,125.5 177.5,125.5 171.5,125.5C 171.5,122.5 171.5,119.5 171.5,116.5 Z"/></g>
<g><path style="opacity:1" fill="#171413" d="M 110.5,119.5 C 108.122,117.243 105.455,116.91 102.5,118.5C 103.312,117.007 104.645,116.34 106.5,116.5C 108.982,116.11 110.315,117.11 110.5,119.5 Z"/></g>
<g><path style="opacity:1" fill="#f5f5f5" d="M 110.5,119.5 C 110.006,123.527 111.506,126.527 115,128.5C 116.311,134.879 113.811,138.879 107.5,140.5C 104.201,139.035 101.701,136.702 100,133.5C 92.1685,135.003 88.8351,131.67 90,123.5C 92.6107,119.588 96.1107,118.588 100.5,120.5C 101.522,120.145 102.189,119.478 102.5,118.5C 105.455,116.91 108.122,117.243 110.5,119.5 Z"/></g>
<g><path style="opacity:1" fill="#f3ed0b" d="M 264.5,108.5 C 269.795,116.815 271.295,125.815 269,135.5C 268.586,135.957 268.086,136.291 267.5,136.5C 264.086,132.697 262.419,128.197 262.5,123C 263.234,118.167 263.9,113.334 264.5,108.5 Z"/></g>
<g><path style="opacity:1" fill="#0d7c38" d="M 112.5,114.5 C 113.06,117.275 114.727,119.108 117.5,120C 116.177,120.816 115.511,121.983 115.5,123.5C 114.833,123.5 114.5,123.833 114.5,124.5C 113.504,124.586 112.671,124.252 112,123.5C 111.79,121.942 111.29,120.609 110.5,119.5C 110.315,117.11 108.982,116.11 106.5,116.5C 104.645,116.34 103.312,117.007 102.5,118.5C 101.861,117.903 101.528,117.07 101.5,116C 101.388,114.338 102.054,113.171 103.5,112.5C 106.276,114.13 109.276,114.797 112.5,114.5 Z"/></g>
<g><path style="opacity:1" fill="#efeb0f" d="M 234.5,101.5 C 242.912,103.612 249.412,108.279 254,115.5C 254.49,116.793 254.657,118.127 254.5,119.5C 245.037,116.709 238.371,110.709 234.5,101.5 Z"/></g>
<g><path style="opacity:1" fill="#eeea10" d="M 253.5,87.5 C 256.148,91.4622 258.315,95.7955 260,100.5C 260.934,105.351 260.601,110.017 259,114.5C 255.718,111.546 253.718,107.88 253,103.5C 252.471,98.1462 252.638,92.8129 253.5,87.5 Z"/></g>
<g><path style="opacity:1" fill="#ebe810" d="M 231.5,78.5 C 238.019,82.0265 243.185,87.0265 247,93.5C 248.079,96.0627 248.579,98.7294 248.5,101.5C 244.088,100.93 240.922,98.5966 239,94.5C 235.685,89.5373 233.185,84.2039 231.5,78.5 Z"/></g>
<g><path style="opacity:1" fill="#76721a" d="M 196.5,223.5 C 195.5,223.5 194.5,223.5 193.5,223.5C 193.5,227.167 193.5,230.833 193.5,234.5C 193.167,234.5 192.833,234.5 192.5,234.5C 192.5,230.5 192.5,226.5 192.5,222.5C 194.099,222.232 195.432,222.566 196.5,223.5 Z"/></g>
<g><path style="opacity:1" fill="#f7f7f6" d="M 168.5,229.5 C 176.167,229.5 183.833,229.5 191.5,229.5C 191.5,231.5 191.5,233.5 191.5,235.5C 183.833,235.5 176.167,235.5 168.5,235.5C 168.5,233.5 168.5,231.5 168.5,229.5 Z"/></g>
<g><path style="opacity:1" fill="#f9f206" d="M 262.5,224.5 C 265.803,228.651 268.97,232.985 272,237.5C 274.828,243.08 275.161,248.747 273,254.5C 271.333,252.833 269.667,251.167 268,249.5C 264.448,242.237 262.614,234.571 262.5,226.5C 262.5,225.833 262.5,225.167 262.5,224.5 Z"/></g>
<g><path style="opacity:1" fill="#08893d" d="M 82.5,243.5 C 82.0831,242.876 81.4164,242.543 80.5,242.5C 78.8957,242.939 77.3957,243.606 76,244.5C 74.2847,243.396 72.7847,242.062 71.5,240.5C 71.0074,238.194 70.6741,235.861 70.5,233.5C 74.5762,233.879 78.2429,232.879 81.5,230.5C 84.6124,232.184 87.9457,232.85 91.5,232.5C 91.8826,237.52 90.3826,241.853 87,245.5C 85.8904,243.963 84.3904,243.297 82.5,243.5 Z"/></g>
<g><path style="opacity:1" fill="#959494" d="M 191.5,237.5 C 184.137,237.169 176.803,237.503 169.5,238.5C 169.863,239.183 170.196,239.85 170.5,240.5C 168.824,239.817 168.157,238.483 168.5,236.5C 176.352,236.175 184.018,236.508 191.5,237.5 Z"/></g>
<g><path style="opacity:1" fill="#f9f9f9" d="M 191.5,237.5 C 191.5,238.5 191.5,239.5 191.5,240.5C 185.833,240.5 180.167,240.5 174.5,240.5C 173.167,240.5 171.833,240.5 170.5,240.5C 170.196,239.85 169.863,239.183 169.5,238.5C 176.803,237.503 184.137,237.169 191.5,237.5 Z"/></g>
<g><path style="opacity:1" fill="#f0f0f0" d="M 170.5,241.5 C 177.692,242.743 185.025,242.743 192.5,241.5C 192.5,242.5 192.5,243.5 192.5,244.5C 184.861,245.525 177.195,245.691 169.5,245C 168.244,244.583 167.577,243.75 167.5,242.5C 168.391,241.89 169.391,241.557 170.5,241.5 Z"/></g>
<g><path style="opacity:1" fill="#f2ee0c" d="M 289.5,226.5 C 290.376,226.369 291.043,226.702 291.5,227.5C 290.501,236.172 287.667,244.172 283,251.5C 281.89,253.037 280.39,253.703 278.5,253.5C 278.335,249.818 278.501,246.152 279,242.5C 282.356,236.996 285.856,231.663 289.5,226.5 Z"/></g>
<g><path style="opacity:1" fill="#f6f6f6" d="M 82.5,243.5 C 85.3454,246.647 89.0121,248.147 93.5,248C 97.6127,251.509 98.446,255.676 96,260.5C 92.5349,263.128 89.0349,263.128 85.5,260.5C 81.8579,267.135 77.0246,268.135 71,263.5C 67.7785,257.073 69.6118,253.073 76.5,251.5C 75.8811,246.794 77.8811,244.127 82.5,243.5 Z"/></g>
<g><path style="opacity:1" fill="#fafafa" d="M 185.5,260.5 C 183.849,259.03 182.015,257.697 180,256.5C 173.721,261.378 167.221,261.712 160.5,257.5C 163.307,254.216 165.307,250.549 166.5,246.5C 175.503,247.628 184.503,247.795 193.5,247C 195.794,250.749 197.627,254.583 199,258.5C 198.25,259.126 197.416,259.626 196.5,260C 192.848,260.499 189.182,260.665 185.5,260.5 Z"/></g>
<g><path style="opacity:1" fill="#f7f108" d="M 260.5,245.5 C 264.57,251.433 268.07,257.766 271,264.5C 271.607,268.537 271.44,272.537 270.5,276.5C 268.61,276.703 267.11,276.037 266,274.5C 261.587,265.36 259.754,255.693 260.5,245.5 Z"/></g>
<g><path style="opacity:1" fill="#f5ee08" d="M 288.5,250.5 C 288.974,258.871 286.474,266.537 281,273.5C 279.587,275.414 277.753,276.747 275.5,277.5C 274.255,273.786 274.421,270.12 276,266.5C 279.236,260.432 283.403,255.098 288.5,250.5 Z"/></g>
<g><path style="opacity:1" fill="#0c8cd0" d="M 185.5,260.5 C 197.819,265.32 210.652,266.653 224,264.5C 227.809,265.322 231.642,265.988 235.5,266.5C 237.811,268.068 240.478,268.902 243.5,269C 246.817,269.498 250.15,269.665 253.5,269.5C 253.5,270.833 253.5,272.167 253.5,273.5C 243.947,273.322 234.947,270.989 226.5,266.5C 210.684,269.064 195.351,267.397 180.5,261.5C 178.081,261.914 176.081,262.914 174.5,264.5C 159.983,267.019 145.316,268.186 130.5,268C 120.32,272.293 109.653,274.793 98.5,275.5C 98.5,273.167 98.5,270.833 98.5,268.5C 110.577,270.633 122.244,269.3 133.5,264.5C 149.401,266.538 164.901,264.871 180,259.5C 181.825,259.943 183.658,260.277 185.5,260.5 Z"/></g>
<g><path style="opacity:1" fill="#f9f9f9" d="M 174.5,264.5 C 176.547,264.489 178.547,264.156 180.5,263.5C 195.056,269.028 210.056,270.694 225.5,268.5C 234.429,272.399 243.762,274.732 253.5,275.5C 253.5,278.167 253.5,280.833 253.5,283.5C 243.411,284.076 233.911,282.076 225,277.5C 215.606,279.503 206.106,280.003 196.5,279C 190.852,278.062 185.519,276.229 180.5,273.5C 165.945,279.8 150.945,281.133 135.5,277.5C 126.73,282.54 117.396,284.207 107.5,282.5C 106.699,279.867 105.033,278.033 102.5,277C 113.639,275.34 124.472,272.507 135,268.5C 148.652,270.666 161.818,269.332 174.5,264.5 Z"/></g>
<g><path style="opacity:1" fill="#078b3d" d="M 84.5,278.5 C 79.9762,277.194 76.9762,274.194 75.5,269.5C 77.772,268.515 80.1053,267.681 82.5,267C 83.7252,265.437 85.2252,264.27 87,263.5C 90.4408,264.382 93.9408,264.716 97.5,264.5C 98.1876,269.377 97.0209,273.71 94,277.5C 90.2608,274.56 87.0941,274.893 84.5,278.5 Z"/></g>
<g><path style="opacity:1" fill="#115073" d="M 311.5,251.5 C 311.5,256.5 311.5,261.5 311.5,266.5C 307.833,266.5 304.167,266.5 300.5,266.5C 300.737,267.791 300.404,268.791 299.5,269.5C 299.5,268.167 299.5,266.833 299.5,265.5C 303.167,265.5 306.833,265.5 310.5,265.5C 310.181,260.637 310.514,255.97 311.5,251.5 Z"/></g>
<g><path style="opacity:1" fill="#f1eb0b" d="M 256.5,266.5 C 261.336,273.674 264.669,281.508 266.5,290C 266.037,293.356 265.037,296.522 263.5,299.5C 259.9,296.722 257.733,293.055 257,288.5C 255.433,281.176 255.266,273.843 256.5,266.5 Z"/></g>
<g><path style="opacity:1" fill="#0d8ccf" d="M 178.5,275.5 C 185.536,278.163 192.869,279.997 200.5,281C 208.116,281.944 215.616,281.444 223,279.5C 228.487,281.329 233.987,283.162 239.5,285C 244.489,285.499 249.489,285.666 254.5,285.5C 254.5,286.5 254.5,287.5 254.5,288.5C 243.921,288.271 233.588,286.604 223.5,283.5C 208.668,285.691 194.168,284.358 180,279.5C 166.046,284.454 151.712,285.788 137,283.5C 132.468,284.425 127.968,285.592 123.5,287C 118.552,288.05 113.552,288.55 108.5,288.5C 108.5,287.5 108.5,286.5 108.5,285.5C 118.104,285.298 127.271,283.298 136,279.5C 150.76,283.008 164.927,281.675 178.5,275.5 Z"/></g>
<g><path style="opacity:1" fill="#f6f6f6" d="M 84.5,278.5 C 88.1944,275.883 91.6944,276.216 95,279.5C 104.4,277.906 108.066,281.906 106,291.5C 103.021,294.524 99.5214,295.358 95.5,294C 91.4052,301.599 86.2385,302.433 80,296.5C 78.5196,291.853 79.6863,288.187 83.5,285.5C 84.4742,283.257 84.8076,280.924 84.5,278.5 Z"/></g>
<g><path style="opacity:1" fill="#f7f109" d="M 285.5,274.5 C 286.097,274.735 286.43,275.235 286.5,276C 283.905,286.375 278.238,294.542 269.5,300.5C 268.17,296.307 268.67,292.307 271,288.5C 275.729,283.603 280.562,278.936 285.5,274.5 Z"/></g>
<g><path style="opacity:1" fill="#f6f6f6" d="M 192.5,295.5 C 188.537,293.903 184.37,292.569 180,291.5C 173.749,293.335 167.583,295.002 161.5,296.5C 152.917,296.829 144.417,296.162 136,294.5C 127.759,297.512 119.259,299.179 110.5,299.5C 110.54,296.119 110.207,292.786 109.5,289.5C 118.661,289.501 127.494,287.835 136,284.5C 151.06,287.683 165.727,286.349 180,280.5C 194.229,286.661 208.896,287.994 224,284.5C 234.101,288.487 244.601,290.487 255.5,290.5C 256.453,293.701 257.786,296.701 259.5,299.5C 247.358,300.313 235.525,298.646 224,294.5C 213.551,296.663 203.051,296.997 192.5,295.5 Z"/></g>
<g><path style="opacity:1" fill="#0f86c5" d="M 294.5,219.5 C 299.5,219.5 304.5,219.5 309.5,219.5C 310.488,224.64 310.821,229.974 310.5,235.5C 308.409,235.318 306.409,235.652 304.5,236.5C 303.509,240.445 303.176,244.445 303.5,248.5C 306.167,248.5 308.833,248.5 311.5,248.5C 311.5,249.5 311.5,250.5 311.5,251.5C 310.514,255.97 310.181,260.637 310.5,265.5C 306.833,265.5 303.167,265.5 299.5,265.5C 299.5,266.833 299.5,268.167 299.5,269.5C 299.183,272.572 299.516,275.572 300.5,278.5C 302.795,279.432 305.129,280.265 307.5,281C 308.022,281.561 308.355,282.228 308.5,283C 306.973,288.802 305.64,294.635 304.5,300.5C 300.787,299.707 297.12,299.707 293.5,300.5C 292.5,302.5 291.5,304.5 290.5,306.5C 292.751,309.295 295.418,311.628 298.5,313.5C 299.583,314.365 299.749,315.365 299,316.5C 295.71,320.912 292.544,325.412 289.5,330C 286.789,328.504 283.789,327.838 280.5,328C 278.946,330.287 277.279,332.454 275.5,334.5C 274.624,334.631 273.957,334.298 273.5,333.5C 275.498,329.345 278.331,326.011 282,323.5C 283.737,324.62 285.571,325.62 287.5,326.5C 290.159,323.671 292.659,320.671 295,317.5C 295.667,316.167 295.667,314.833 295,313.5C 292.179,311.678 289.679,309.511 287.5,307C 288.996,303.851 290.496,300.684 292,297.5C 295.418,296.734 298.918,296.734 302.5,297.5C 303.111,292.892 304.111,288.392 305.5,284C 303.027,281.563 300.027,280.396 296.5,280.5C 296.532,274.811 296.866,269.145 297.5,263.5C 301.5,263.5 305.5,263.5 309.5,263.5C 309.5,259.167 309.5,254.833 309.5,250.5C 306.5,250.5 303.5,250.5 300.5,250.5C 300.5,244.833 300.5,239.167 300.5,233.5C 303.167,233.5 305.833,233.5 308.5,233.5C 308.5,229.5 308.5,225.5 308.5,221.5C 303.381,222.103 298.715,221.436 294.5,219.5 Z"/></g>
<g><path style="opacity:1" fill="#1d2227" d="M 192.5,295.5 C 188.177,295.227 184.01,294.227 180,292.5C 174.127,295.175 167.96,296.508 161.5,296.5C 167.583,295.002 173.749,293.335 180,291.5C 184.37,292.569 188.537,293.903 192.5,295.5 Z"/></g>
<g><path style="opacity:1" fill="#078c3e" d="M 106.5,294.5 C 108.045,295.23 108.878,296.563 109,298.5C 110.615,308.465 106.448,312.965 96.5,312C 93.2167,310.439 90.3834,308.273 88,305.5C 87.2506,304.365 87.4173,303.365 88.5,302.5C 91.4001,301.557 93.7334,299.89 95.5,297.5C 99.3661,296.772 103.033,295.772 106.5,294.5 Z"/></g>
<g><path style="opacity:1" fill="#0b8cd0" d="M 192.5,295.5 C 197.58,297.015 202.914,297.682 208.5,297.5C 213.516,297.378 218.516,297.045 223.5,296.5C 231.69,298.805 240.024,300.471 248.5,301.5C 252.833,302.167 257.167,302.833 261.5,303.5C 259.181,306.651 256.347,309.318 253,311.5C 225.087,300.109 196.254,295.775 166.5,298.5C 163.193,299.051 159.86,299.384 156.5,299.5C 150.18,299.4 144.18,300.4 138.5,302.5C 128.847,303.914 119.514,306.581 110.5,310.5C 110.167,310.167 109.833,309.833 109.5,309.5C 111.229,307.149 111.896,304.482 111.5,301.5C 119.957,300.475 128.29,298.809 136.5,296.5C 144.988,297.757 153.321,297.757 161.5,296.5C 167.96,296.508 174.127,295.175 180,292.5C 184.01,294.227 188.177,295.227 192.5,295.5 Z"/></g>
<g><path style="opacity:1" fill="#242930" d="M 156.5,299.5 C 150.69,300.857 144.69,301.857 138.5,302.5C 144.18,300.4 150.18,299.4 156.5,299.5 Z"/></g>
<g><path style="opacity:1" fill="#f3f3f3" d="M 166.5,298.5 C 200.97,296.594 233.637,303.261 264.5,318.5C 266.363,318.846 267.196,319.846 267,321.5C 261.881,325.652 257.048,330.152 252.5,335C 251.667,335.167 250.833,335.333 250,335.5C 206.518,315.515 162.685,314.515 118.5,332.5C 115.348,334.254 112.015,335.087 108.5,335C 103.684,331.019 99.0178,326.852 94.5,322.5C 93.1667,321.5 93.1667,320.5 94.5,319.5C 108.66,312.23 123.327,306.563 138.5,302.5C 144.69,301.857 150.69,300.857 156.5,299.5C 159.86,299.384 163.193,299.051 166.5,298.5 Z"/></g>
<g><path style="opacity:1" fill="#f6f5f5" d="M 42.5,301.5 C 69.6191,360.691 115.452,396.024 180,407.5C 244.64,396.338 290.473,361.005 317.5,301.5C 324.718,306.602 331.718,311.936 338.5,317.5C 306.087,384.397 252.92,422.397 179,431.5C 120.883,424.787 74.8829,397.787 41,350.5C 33.996,339.83 27.496,328.83 21.5,317.5C 28.5186,312.143 35.5186,306.809 42.5,301.5 Z"/></g>
<g><path style="opacity:1" fill="#104e6f" d="M 248.5,301.5 C 253.214,301.173 257.88,301.507 262.5,302.5C 262.376,303.107 262.043,303.44 261.5,303.5C 257.167,302.833 252.833,302.167 248.5,301.5 Z"/></g>
<g><path style="opacity:1" fill="#242221" d="M 163.5,303.5 C 165.144,303.286 166.644,303.62 168,304.5C 169.833,308.167 171.667,311.833 173.5,315.5C 173,315.833 172.5,316.167 172,316.5C 169.453,314.823 166.62,314.156 163.5,314.5C 163.5,315.5 163.5,316.5 163.5,317.5C 162.5,317.5 161.5,317.5 160.5,317.5C 161.185,312.761 162.185,308.094 163.5,303.5 Z"/></g>
<g><path style="opacity:1" fill="#181615" d="M 194.5,303.5 C 195.5,303.5 196.5,303.5 197.5,303.5C 196.686,308.119 196.353,312.786 196.5,317.5C 195.5,317.5 194.5,317.5 193.5,317.5C 193.998,312.848 194.331,308.181 194.5,303.5 Z"/></g>
<g><path style="opacity:1" fill="#221f1f" d="M 180.5,302.5 C 184.5,302.5 188.5,302.5 192.5,302.5C 192.5,303.5 192.5,304.5 192.5,305.5C 190.833,305.5 189.167,305.5 187.5,305.5C 187.5,309.167 187.5,312.833 187.5,316.5C 186.5,316.5 185.5,316.5 184.5,316.5C 184.5,312.833 184.5,309.167 184.5,305.5C 183.167,305.5 181.833,305.5 180.5,305.5C 180.5,304.5 180.5,303.5 180.5,302.5 Z"/></g>
<g><path style="opacity:1" fill="#1d1a1a" d="M 155.5,304.5 C 157.436,308.715 158.103,313.381 157.5,318.5C 156.167,318.5 154.833,318.5 153.5,318.5C 153.159,315.484 151.993,312.818 150,310.5C 148.957,313.757 148.457,317.09 148.5,320.5C 147.325,320.719 146.325,320.386 145.5,319.5C 143.421,315.842 141.754,312.008 140.5,308C 141.01,306.174 141.844,306.007 143,307.5C 144,309.833 145,312.167 146,314.5C 146.27,311.776 146.77,309.109 147.5,306.5C 148.689,305.571 150.022,305.238 151.5,305.5C 154.263,316.227 155.596,315.894 155.5,304.5 Z"/></g>
<g><path style="opacity:1" fill="#e5e5e5" d="M 165.5,307.5 C 166.837,308.315 167.837,309.482 168.5,311C 167.056,311.781 165.723,311.614 164.5,310.5C 165.127,309.583 165.461,308.583 165.5,307.5 Z"/></g>
<g><path style="opacity:1" fill="#1f1d1c" d="M 200.5,304.5 C 202.167,304.5 203.833,304.5 205.5,304.5C 205.665,314.795 207.165,315.462 210,306.5C 211.356,305.62 212.856,305.286 214.5,305.5C 214.012,310.274 213.012,314.941 211.5,319.5C 210.772,316.198 210.605,312.865 211,309.5C 209.769,312.961 208.269,316.294 206.5,319.5C 205.914,319.291 205.414,318.957 205,318.5C 204.654,315.424 203.988,312.424 203,309.5C 202.355,312.559 201.522,315.559 200.5,318.5C 199.532,313.855 199.532,309.188 200.5,304.5 Z"/></g>
<g><path style="opacity:1" fill="#201e1d" d="M 218.5,307.5 C 219.675,307.281 220.675,307.614 221.5,308.5C 219.894,312.313 219.561,316.146 220.5,320C 221.784,320.684 222.951,320.517 224,319.5C 225.452,316.263 226.619,312.93 227.5,309.5C 228.5,309.833 229.167,310.5 229.5,311.5C 228.512,314.45 227.679,317.45 227,320.5C 223.751,324.367 220.418,324.367 217,320.5C 216.425,316.026 216.925,311.693 218.5,307.5 Z"/></g>
<g><path style="opacity:1" fill="#0e8acb" d="M 64.5,219.5 C 65.0431,219.56 65.3764,219.893 65.5,220.5C 61.2172,221.492 56.8839,221.826 52.5,221.5C 52.5,225.5 52.5,229.5 52.5,233.5C 54.8333,233.5 57.1667,233.5 59.5,233.5C 59.5,239.167 59.5,244.833 59.5,250.5C 56.8333,250.5 54.1667,250.5 51.5,250.5C 51.5,254.833 51.5,259.167 51.5,263.5C 55.1667,263.5 58.8333,263.5 62.5,263.5C 63.3537,269.121 63.687,274.788 63.5,280.5C 60.8333,281.167 58.1667,281.833 55.5,282.5C 56.1667,287.5 56.8333,292.5 57.5,297.5C 61.1947,296.54 64.8614,296.54 68.5,297.5C 69.9308,300.626 71.2642,303.793 72.5,307C 70.2019,309.593 67.7019,312.093 65,314.5C 66.707,318.395 68.8736,322.228 71.5,326C 73.6994,325.255 76.0327,324.421 78.5,323.5C 80.7615,324.095 82.4281,325.429 83.5,327.5C 84.4151,329.754 85.7484,331.754 87.5,333.5C 87,333.833 86.5,334.167 86,334.5C 83.3574,332.022 80.8574,329.356 78.5,326.5C 76.0038,327.58 73.6705,328.914 71.5,330.5C 67.9562,325.245 64.2895,320.079 60.5,315C 63.3333,312.5 66.1667,310 69,307.5C 69.2566,304.983 68.5899,302.65 67,300.5C 63.2275,299.483 59.3941,299.483 55.5,300.5C 54.803,293.682 53.4697,287.015 51.5,280.5C 54.5534,280.089 57.5534,279.423 60.5,278.5C 61.6599,274.541 61.8265,270.541 61,266.5C 57.27,265.54 53.4367,265.207 49.5,265.5C 49.1718,260.125 49.5052,254.792 50.5,249.5C 52.7466,248.626 55.0799,248.292 57.5,248.5C 57.5,244.167 57.5,239.833 57.5,235.5C 54.8333,235.5 52.1667,235.5 49.5,235.5C 49.5,230.167 49.5,224.833 49.5,219.5C 54.5,219.5 59.5,219.5 64.5,219.5 Z"/></g>
<g><path style="opacity:1" fill="#1b1919" d="M 121.5,312.5 C 122.75,312.577 123.583,313.244 124,314.5C 126.134,318.363 126.634,322.363 125.5,326.5C 122.784,328.086 120.45,327.753 118.5,325.5C 119.594,323.164 120.927,323.164 122.5,325.5C 123.5,325.167 124.167,324.5 124.5,323.5C 122.385,319.87 121.385,316.203 121.5,312.5 Z"/></g>
<g><path style="opacity:1" fill="#171514" d="M 130.5,309.5 C 135.668,311.658 139.668,315.325 142.5,320.5C 142,320.833 141.5,321.167 141,321.5C 136.403,318.18 133.57,319.18 132.5,324.5C 131.5,324.5 130.5,324.5 129.5,324.5C 130.254,319.537 130.587,314.537 130.5,309.5 Z"/></g>
<g><path style="opacity:1" fill="#e2e1e1" d="M 132.5,312.5 C 133.933,313.833 135.267,315.333 136.5,317C 135.207,317.49 133.873,317.657 132.5,317.5C 132.5,315.833 132.5,314.167 132.5,312.5 Z"/></g>
<g><path style="opacity:1" fill="#1c1a1a" d="M 233.5,311.5 C 236.516,312.562 239.516,313.729 242.5,315C 244.398,318.694 243.398,321.194 239.5,322.5C 240.706,324.516 240.706,326.516 239.5,328.5C 238.121,325.693 236.454,323.026 234.5,320.5C 233.05,321.85 232.383,323.516 232.5,325.5C 231.5,325.5 230.5,325.5 229.5,325.5C 230.833,320.833 232.167,316.167 233.5,311.5 Z"/></g>
<g><path style="opacity:1" fill="#e5e4e4" d="M 235.5,315.5 C 237.696,315.565 239.696,316.232 241.5,317.5C 239.295,320.053 236.962,320.053 234.5,317.5C 234.863,316.817 235.196,316.15 235.5,315.5 Z"/></g>
<g><path style="opacity:1" fill="#f2f2f1" d="M 18.5,319.5 C 19.3764,319.369 20.0431,319.702 20.5,320.5C 27.8338,336.648 37.3338,351.315 49,364.5C 50.1016,369.105 50.935,373.771 51.5,378.5C 51.1667,378.833 50.8333,379.167 50.5,379.5C 37.8951,364.047 27.0618,347.38 18,329.5C 17.3412,326.112 17.5078,322.779 18.5,319.5 Z"/></g>
<g><path style="opacity:1" fill="#f3f3f3" d="M 340.5,319.5 C 341.117,319.611 341.617,319.944 342,320.5C 342.667,323.833 342.667,327.167 342,330.5C 333.3,348.184 322.634,364.517 310,379.5C 309.544,374.025 310.211,368.692 312,363.5C 323.752,350.338 333.252,335.671 340.5,319.5 Z"/></g>
<g><path style="opacity:1" fill="#048f3f" d="M 168.5,321.5 C 184.38,320.777 200.047,322.277 215.5,326C 217.772,328.763 218.105,331.763 216.5,335C 216.785,336.89 217.785,338.223 219.5,339C 207.162,347.221 193.995,353.721 180,358.5C 165.889,353.694 152.723,347.194 140.5,339C 141.563,337.812 142.897,337.312 144.5,337.5C 143.643,333.594 143.643,329.76 144.5,326C 152.619,324.372 160.619,322.872 168.5,321.5 Z"/></g>
<g><path style="opacity:1" fill="#f6f6f5" d="M 359.5,104.5 C 359.5,219.167 359.5,333.833 359.5,448.5C 239.5,448.5 119.5,448.5 -0.5,448.5C -0.5,408.833 -0.5,369.167 -0.5,329.5C 4.51108,329.666 9.51108,329.499 14.5,329C 13.2089,327.708 13.2089,326.542 14.5,325.5C 24.2133,347.725 37.3799,367.725 54,385.5C 53.8225,380.793 53.9891,376.126 54.5,371.5C 86.173,405.34 125.173,425.507 171.5,432C 225.112,430.609 269.945,410.109 306,370.5C 306.56,375.91 306.56,381.244 306,386.5C 321.141,369.564 333.808,350.898 344,330.5C 347.794,324.865 347.294,319.698 342.5,315C 334.833,310 327.167,305 319.5,300C 318.056,298.874 317.39,297.374 317.5,295.5C 320.93,243.23 322.93,190.897 323.5,138.5C 324.098,113.317 324.764,91.9833 325.5,74.5C 326.833,74.5 328.167,74.5 329.5,74.5C 329.5,79.5 329.5,84.5 329.5,89.5C 334.5,89.5 339.5,89.5 344.5,89.5C 344.5,94.5 344.5,99.5 344.5,104.5C 349.5,104.5 354.5,104.5 359.5,104.5 Z"/></g>
<g><path style="opacity:1" fill="#e6e31b" d="M 234.5,373.5 C 235.5,373.5 236.5,373.5 237.5,373.5C 237.773,375.451 237.107,376.951 235.5,378C 224.835,381.611 214.168,385.111 203.5,388.5C 203.5,386.833 203.5,385.167 203.5,383.5C 214.164,380.923 224.497,377.59 234.5,373.5 Z"/></g>
<g><path style="opacity:1" fill="#f4f11f" d="M 161.5,381.5 C 173.833,381.5 186.167,381.5 198.5,381.5C 198.5,382.833 198.5,384.167 198.5,385.5C 186.167,385.5 173.833,385.5 161.5,385.5C 161.5,384.167 161.5,382.833 161.5,381.5 Z"/></g>
<g><path style="opacity:1" fill="#f0ed17" d="M 123.5,373.5 C 134.932,377.033 146.266,380.866 157.5,385C 156.929,386.205 156.262,387.372 155.5,388.5C 145.091,385.03 134.758,381.364 124.5,377.5C 123.571,376.311 123.238,374.978 123.5,373.5 Z"/></g>
<g><path style="opacity:1" fill="#181615" d="M 262.5,380.5 C 266.314,380.651 267.981,382.651 267.5,386.5C 272.068,386.083 273.568,388.083 272,392.5C 269.333,394.5 266.667,396.5 264,398.5C 261.361,394.361 258.528,390.361 255.5,386.5C 257.853,384.477 260.186,382.477 262.5,380.5 Z"/></g>
<g><path style="opacity:1" fill="#e5e5e5" d="M 265.5,388.5 C 266.833,388.5 268.167,388.5 269.5,388.5C 269.405,391.272 268.071,393.272 265.5,394.5C 264.167,393.833 263.167,392.833 262.5,391.5C 263.77,390.712 264.77,389.712 265.5,388.5 Z"/></g>
<g><path style="opacity:1" fill="#e8e8e8" d="M 262.5,383.5 C 266.399,385.134 266.232,386.8 262,388.5C 260.72,388.387 259.887,387.72 259.5,386.5C 260.34,385.265 261.34,384.265 262.5,383.5 Z"/></g>
<g><path style="opacity:1" fill="#1d1b1a" d="M 275.5,369.5 C 276.756,369.461 277.756,369.961 278.5,371C 276.759,372.62 274.925,374.12 273,375.5C 272.399,376.965 272.899,377.965 274.5,378.5C 282.06,372.895 282.893,373.562 277,380.5C 276.388,382.237 277.054,383.237 279,383.5C 280.775,382.73 282.275,381.563 283.5,380C 284.635,379.251 285.635,379.417 286.5,380.5C 283.874,382.823 281.207,385.157 278.5,387.5C 274.475,384.442 271.142,380.775 268.5,376.5C 271.06,374.388 273.394,372.055 275.5,369.5 Z"/></g>
<g><path style="opacity:1" fill="#1b1919" d="M 79.5,365.5 C 83.3694,367.203 86.0361,370.036 87.5,374C 87.4148,375.107 87.0814,376.107 86.5,377C 84.8659,377.494 83.1992,377.66 81.5,377.5C 81.8134,380.247 81.48,382.914 80.5,385.5C 80.1667,385.333 79.8333,385.167 79.5,385C 78.5442,381.606 78.2108,378.106 78.5,374.5C 76.1331,375.164 74.1331,376.497 72.5,378.5C 71.5,378.167 70.8333,377.5 70.5,376.5C 73.9015,373.105 76.9015,369.438 79.5,365.5 Z"/></g>
<g><path style="opacity:1" fill="#e3e2e2" d="M 79.5,369.5 C 83.713,369.699 85.0464,371.699 83.5,375.5C 79.8701,374.607 78.5368,372.607 79.5,369.5 Z"/></g>
<g><path style="opacity:1" fill="#edea19" d="M 265.5,357.5 C 267.5,358.643 268.167,360.143 267.5,362C 259.41,366.794 251.576,371.961 244,377.5C 242.35,376.109 241.85,374.609 242.5,373C 250.344,367.97 258.011,362.804 265.5,357.5 Z"/></g>
<g><path style="opacity:1" fill="#eeea18" d="M 93.5,358.5 C 102.616,362.561 110.95,367.895 118.5,374.5C 118,375.5 117.5,376.5 117,377.5C 108.672,371.996 100.506,366.329 92.5,360.5C 92.8627,359.817 93.1961,359.15 93.5,358.5 Z"/></g>
<g><path style="opacity:1" fill="#211f1f" d="M 68.5,354.5 C 71.4037,356.737 74.0703,359.403 76.5,362.5C 75.9984,363.521 75.3317,363.688 74.5,363C 72.9825,361.315 71.3159,359.815 69.5,358.5C 68.5,358.833 67.8333,359.5 67.5,360.5C 69.1667,362.5 70.8333,364.5 72.5,366.5C 71.635,367.583 70.635,367.749 69.5,367C 67.6275,363.365 65.2942,362.865 62.5,365.5C 64.1667,367.833 66.1667,369.833 68.5,371.5C 68.1924,372.308 67.6924,372.975 67,373.5C 64.1667,370.667 61.3333,367.833 58.5,365C 62.0374,361.631 65.3707,358.131 68.5,354.5 Z"/></g>
<g><path style="opacity:1" fill="#1d1b1a" d="M 288.5,357.5 C 290.018,360.534 290.851,363.867 291,367.5C 292.5,369 294,370.5 295.5,372C 294.975,372.692 294.308,373.192 293.5,373.5C 289.443,370.031 284.777,367.698 279.5,366.5C 279.887,365.28 280.72,364.613 282,364.5C 288.5,368 290,366.5 286.5,360C 287.056,358.989 287.722,358.156 288.5,357.5 Z"/></g>
<g><path style="opacity:1" fill="#eeea18" d="M 255.5,352.5 C 257.974,353.276 258.641,354.776 257.5,357C 252.167,360.667 246.833,364.333 241.5,368C 237.357,368.38 236.69,367.047 239.5,364C 245.294,360.691 250.627,356.858 255.5,352.5 Z"/></g>
<g><path style="opacity:1" fill="#efec19" d="M 103.5,352.5 C 109.805,356.656 116.138,360.823 122.5,365C 123.668,366.871 123.168,368.371 121,369.5C 115.587,365.543 110.087,361.71 104.5,358C 102.365,356.444 102.032,354.611 103.5,352.5 Z"/></g>
<g><path style="opacity:1" fill="#1b1918" d="M 63.5,348.5 C 65.0847,349.002 65.5847,350.002 65,351.5C 62.1845,355.159 58.6845,357.826 54.5,359.5C 50.2292,358.427 48.8958,355.927 50.5,352C 53.1764,351.383 53.843,352.216 52.5,354.5C 52.8333,355.5 53.5,356.167 54.5,356.5C 58.1405,354.525 61.1405,351.858 63.5,348.5 Z"/></g>
<g><path style="opacity:1" fill="#191717" d="M 293.5,351.5 C 299.042,352.626 304.376,354.459 309.5,357C 307.715,358.163 305.715,358.83 303.5,359C 300.772,360.431 300.105,362.431 301.5,365C 301.37,366.059 300.87,366.892 300,367.5C 297.246,362.992 294.746,358.326 292.5,353.5C 292.863,352.817 293.196,352.15 293.5,351.5 Z"/></g>
<g><path style="opacity:1" fill="#dad9d9" d="M 296.5,354.5 C 298.975,355.093 300.475,356.426 301,358.5C 300.282,359.451 299.449,359.617 298.5,359C 297.418,357.67 296.751,356.17 296.5,354.5 Z"/></g>
<g><path style="opacity:1" fill="#f2ed0c" d="M 231.5,332.5 C 236.39,332.639 236.723,334.139 232.5,337C 211.31,352.512 188.476,365.012 164,374.5C 162.606,373.387 161.439,372.053 160.5,370.5C 182.643,360.762 204.31,349.929 225.5,338C 227.763,336.383 229.763,334.55 231.5,332.5 Z"/></g>
<g><path style="opacity:1" fill="#058e3e" d="M 127.5,342.5 C 129.199,342.34 130.866,342.506 132.5,343C 142.598,350.259 153.264,356.592 164.5,362C 165.357,362.689 166.023,363.522 166.5,364.5C 163.505,366.669 160.171,368.169 156.5,369C 158.877,374.42 162.877,376.754 168.5,376C 172.161,373.672 176.161,372.172 180.5,371.5C 184.813,372.987 189.147,374.487 193.5,376C 195.167,376.667 196.833,376.667 198.5,376C 200.5,373.667 202.5,371.333 204.5,369C 200.785,367.705 197.118,366.538 193.5,365.5C 193.281,364.325 193.614,363.325 194.5,362.5C 206.404,357.408 217.404,350.908 227.5,343C 230.558,342.542 233.558,342.876 236.5,344C 242.413,346.272 248.079,348.939 253.5,352C 246.496,356.224 239.83,360.891 233.5,366C 234.289,367.626 235.289,369.126 236.5,370.5C 224.921,374.915 213.255,378.915 201.5,382.5C 200.614,381.675 200.281,380.675 200.5,379.5C 186.833,379.5 173.167,379.5 159.5,379.5C 159.719,380.675 159.386,381.675 158.5,382.5C 147.548,378.679 136.548,375.012 125.5,371.5C 125.167,371.167 124.833,370.833 124.5,370.5C 125.548,368.544 126.048,366.544 126,364.5C 120.148,360.243 114.148,356.243 108,352.5C 107.383,351.551 107.549,350.718 108.5,350C 114.922,347.446 121.255,344.946 127.5,342.5 Z"/></g>
<g><path style="opacity:1" fill="#09873c" d="M 188.5,365.5 C 192.446,367.135 196.446,368.802 200.5,370.5C 199.333,372.167 198.167,373.833 197,375.5C 192.614,374.261 188.614,372.261 185,369.5C 184.833,369.167 184.667,368.833 184.5,368.5C 185.901,367.479 187.235,366.479 188.5,365.5 Z"/></g>
<g><path style="opacity:1" fill="#e0e0df" d="M 238.5,333.5 C 242.053,334.517 245.386,336.017 248.5,338C 247.975,338.692 247.308,339.192 246.5,339.5C 243.333,338.281 240.333,336.781 237.5,335C 238.056,334.617 238.389,334.117 238.5,333.5 Z"/></g>
<g><path style="opacity:1" fill="#dfdede" d="M 119.5,333.5 C 120.552,333.351 121.552,333.517 122.5,334C 123.833,334.667 123.833,335.333 122.5,336C 119.382,336.873 116.382,338.039 113.5,339.5C 112.478,339.145 111.811,338.478 111.5,337.5C 114.485,336.674 117.151,335.341 119.5,333.5 Z"/></g>
<g><path style="opacity:1" fill="#eeeded" d="M 219.5,333.5 C 221.75,333.181 223.75,333.681 225.5,335C 222.547,338.358 220.547,337.858 219.5,333.5 Z"/></g>
<g><path style="opacity:1" fill="#dbdad9" d="M 134.5,333.5 C 136.833,333.5 139.167,333.5 141.5,333.5C 141.5,334.5 141.5,335.5 141.5,336.5C 137.832,338.498 135.499,337.498 134.5,333.5 Z"/></g>
<g><path style="opacity:1" fill="#0a863c" d="M 126.5,331.5 C 133.727,337.129 141.394,342.295 149.5,347C 158.546,351.343 167.546,355.676 176.5,360C 174.61,361.112 172.61,361.946 170.5,362.5C 153.582,355.229 138.249,345.563 124.5,333.5C 125.243,332.818 125.909,332.151 126.5,331.5 Z"/></g>
<g><path style="opacity:1" fill="#f7f7f7" d="M 269.5,334.5 C 270.29,335.401 271.29,336.068 272.5,336.5C 276.308,338.573 279.974,340.906 283.5,343.5C 279.831,348.332 275.998,352.999 272,357.5C 258.913,350.539 245.413,344.539 231.5,339.5C 232.559,338.304 233.893,337.637 235.5,337.5C 240.187,338.673 244.687,340.34 249,342.5C 253.637,338.699 258.137,334.699 262.5,330.5C 264.698,332.098 267.031,333.431 269.5,334.5 Z"/></g>
<g><path style="opacity:1" fill="#f7f7f7" d="M 104.5,336.5 C 106.848,338.68 109.348,340.68 112,342.5C 116.094,340.289 120.427,338.623 125,337.5C 126.662,337.388 127.829,338.054 128.5,339.5C 114.701,345.258 101.034,351.092 87.5,357C 84.3333,353.167 81.1667,349.333 78,345.5C 77.3333,344.5 77.3333,343.5 78,342.5C 84.2769,338.948 90.4436,335.281 96.5,331.5C 97.1174,331.389 97.6174,331.056 98,330.5C 100.037,332.706 102.203,334.706 104.5,336.5 Z"/></g>
<g><path style="opacity:1" fill="#e7e7e7" d="M 220.5,327.5 C 224.18,328.56 227.846,329.726 231.5,331C 230.57,331.991 229.404,332.491 228,332.5C 225.538,331.841 223.038,331.507 220.5,331.5C 220.5,330.167 220.5,328.833 220.5,327.5 Z"/></g>
<g><path style="opacity:1" fill="#e2e2e1" d="M 137.5,327.5 C 140.173,327.684 140.84,328.851 139.5,331C 137.153,331.436 134.819,331.936 132.5,332.5C 131.263,332.444 130.263,331.944 129.5,331C 132.158,329.522 134.825,328.355 137.5,327.5 Z"/></g>
<g><path style="opacity:1" fill="#f6f317" d="M 161.5,389.5 C 173.833,389.5 186.167,389.5 198.5,389.5C 198.5,390.833 198.5,392.167 198.5,393.5C 186.167,393.5 173.833,393.5 161.5,393.5C 161.5,392.167 161.5,390.833 161.5,389.5 Z"/></g>
<g><path style="opacity:1" fill="#191717" d="M 98.5,380.5 C 102.543,382.017 105.543,384.684 107.5,388.5C 107.078,390.663 105.744,391.997 103.5,392.5C 105.131,396.049 103.964,398.049 100,398.5C 96.4859,397.324 93.3192,395.491 90.5,393C 93.5623,389.031 96.229,384.864 98.5,380.5 Z"/></g>
<g><path style="opacity:1" fill="#e8e8e8" d="M 96.5,389.5 C 99.8155,390.265 101.149,392.098 100.5,395C 95.1671,395.538 93.8338,393.704 96.5,389.5 Z"/></g>
<g><path style="opacity:1" fill="#d8d8d7" d="M 99.5,384.5 C 103.074,385.034 104.407,386.867 103.5,390C 99.6288,389.918 98.2954,388.085 99.5,384.5 Z"/></g>
<g><path style="opacity:1" fill="#1b1919" d="M 240.5,394.5 C 245.113,397.775 249.446,401.442 253.5,405.5C 253,405.833 252.5,406.167 252,406.5C 246.394,403.387 243.561,405.054 243.5,411.5C 242.5,411.5 241.5,411.5 240.5,411.5C 239.487,405.77 239.487,400.103 240.5,394.5 Z"/></g>
<g><path style="opacity:1" fill="#1b1918" d="M 126.5,398.5 C 130.815,398.318 133.815,400.152 135.5,404C 135.167,404.5 134.833,405 134.5,405.5C 133.155,404.653 132.155,403.487 131.5,402C 130.056,401.219 128.723,401.386 127.5,402.5C 129.817,404.804 131.817,407.304 133.5,410C 131.385,414.631 128.051,415.631 123.5,413C 121.813,411.087 121.313,408.92 122,406.5C 123.675,407.595 124.842,409.095 125.5,411C 127.403,411.774 129.07,411.44 130.5,410C 128.667,408.167 126.833,406.333 125,404.5C 124.252,402.16 124.752,400.16 126.5,398.5 Z"/></g>
<g><path style="opacity:1" fill="#f1f1f1" d="M 242.5,399.5 C 245.968,401.044 246.135,402.71 243,404.5C 242.506,402.866 242.34,401.199 242.5,399.5 Z"/></g>
<g><path style="opacity:1" fill="#1b1817" d="M 115.5,392.5 C 117.103,392.312 118.437,392.812 119.5,394C 118.32,399.093 117.32,404.26 116.5,409.5C 115.094,407.434 113.76,405.268 112.5,403C 110.319,400.922 108.319,401.089 106.5,403.5C 105.692,403.192 105.025,402.692 104.5,402C 108.238,398.816 111.905,395.649 115.5,392.5 Z"/></g>
<g><path style="opacity:1" fill="#f4f4f3" d="M 114.5,396.5 C 115.788,398.035 115.788,399.701 114.5,401.5C 112.07,399.963 112.07,398.296 114.5,396.5 Z"/></g>
<g><path style="opacity:1" fill="#1f1d1d" d="M 232.5,399.5 C 233.75,399.577 234.583,400.244 235,401.5C 235.318,405.195 235.818,408.862 236.5,412.5C 236.167,414.167 235.167,415.167 233.5,415.5C 231.333,412.5 229.167,409.5 227,406.5C 226.447,409.359 226.614,412.192 227.5,415C 227.291,416.871 226.291,418.038 224.5,418.5C 220.779,414.386 218.112,409.719 216.5,404.5C 217.675,404.281 218.675,404.614 219.5,405.5C 220.803,407.968 222.303,410.301 224,412.5C 223.518,409.24 223.518,405.907 224,402.5C 225.049,401.483 226.216,401.316 227.5,402C 233.529,413.534 235.195,412.7 232.5,399.5 Z"/></g>
<g><path style="opacity:1" fill="#1e1c1b" d="M 209.5,406.5 C 212.97,410.817 216.303,415.317 219.5,420C 216.03,419.092 212.364,418.592 208.5,418.5C 209.244,421.95 207.91,423.616 204.5,423.5C 205.384,418.196 206.051,412.863 206.5,407.5C 207.791,407.737 208.791,407.404 209.5,406.5 Z"/></g>
<g><path style="opacity:1" fill="#181615" d="M 155.5,407.5 C 156.756,407.461 157.756,407.961 158.5,409C 157.424,410.726 157.257,412.559 158,414.5C 159.925,413.12 161.759,411.62 163.5,410C 164.944,409.219 166.277,409.386 167.5,410.5C 165.473,411.861 163.806,413.527 162.5,415.5C 163.798,418.422 164.798,421.422 165.5,424.5C 164.325,424.719 163.325,424.386 162.5,423.5C 161.423,421.088 160.256,418.754 159,416.5C 157.408,418.493 155.908,420.493 154.5,422.5C 154.167,421.5 153.833,420.5 153.5,419.5C 154.169,415.487 154.836,411.487 155.5,407.5 Z"/></g>
<g><path style="opacity:1" fill="#1a1817" d="M 139.5,403.5 C 140.5,403.5 141.5,403.5 142.5,403.5C 141.708,407.211 140.708,410.878 139.5,414.5C 140.673,417.279 142.507,417.946 145,416.5C 146.265,413.539 147.431,410.539 148.5,407.5C 149.5,406.167 150.5,406.167 151.5,407.5C 150.564,411.309 149.23,414.975 147.5,418.5C 144.097,421.199 140.93,420.866 138,417.5C 137.349,412.707 137.849,408.04 139.5,403.5 Z"/></g>
<g><path style="opacity:1" fill="#090607" d="M 170.5,410.5 C 171.5,410.5 172.5,410.5 173.5,410.5C 171.851,430.43 170.851,430.43 170.5,410.5 Z"/></g>
<g><path style="opacity:1" fill="#d5d4d4" d="M 209.5,411.5 C 213.546,414.464 213.213,416.131 208.5,416.5C 208.366,414.708 208.699,413.042 209.5,411.5 Z"/></g>
<g><path style="opacity:1" fill="#1c1a19" d="M 194.5,409.5 C 196.167,409.5 197.833,409.5 199.5,409.5C 200.053,414.482 200.387,419.482 200.5,424.5C 199.5,424.5 198.5,424.5 197.5,424.5C 197.633,409.944 196.799,409.944 195,424.5C 193.989,425.337 192.822,425.67 191.5,425.5C 189.306,413.745 188.306,413.745 188.5,425.5C 187.5,425.5 186.5,425.5 185.5,425.5C 185.5,420.5 185.5,415.5 185.5,410.5C 187.167,410.5 188.833,410.5 190.5,410.5C 192.649,422.339 193.983,422.006 194.5,409.5 Z"/></g>
</svg>
