<?xml version="1.0" encoding="UTF-8"?>
<!DOCTYPE svg PUBLIC "-//W3C//DTD SVG 1.1//EN" "http://www.w3.org/Graphics/SVG/1.1/DTD/svg11.dtd">
<svg xmlns="http://www.w3.org/2000/svg" version="1.1" width="454px" height="255px" style="shape-rendering:geometricPrecision; text-rendering:geometricPrecision; image-rendering:optimizeQuality; fill-rule:evenodd; clip-rule:evenodd" xmlns:xlink="http://www.w3.org/1999/xlink">
<g><path style="opacity:1" fill="#fdfdfd" d="M -0.5,-0.5 C 150.833,-0.5 302.167,-0.5 453.5,-0.5C 453.5,84.5 453.5,169.5 453.5,254.5C 302.167,254.5 150.833,254.5 -0.5,254.5C -0.5,169.5 -0.5,84.5 -0.5,-0.5 Z"/></g>
<g><path style="opacity:1" fill="#2d2c2b" d="M 256.5,69.5 C 260.167,69.5 263.833,69.5 267.5,69.5C 267.5,86.5 267.5,103.5 267.5,120.5C 267.5,120.833 267.5,121.167 267.5,121.5C 266.503,104.675 266.17,87.6749 266.5,70.5C 262.958,70.8128 259.625,70.4794 256.5,69.5 Z"/></g>
<g><path style="opacity:1" fill="#868584" d="M 246.5,68.5 C 253.833,68.5 261.167,68.5 268.5,68.5C 268.83,86.008 268.497,103.341 267.5,120.5C 267.5,103.5 267.5,86.5 267.5,69.5C 263.833,69.5 260.167,69.5 256.5,69.5C 252.958,69.8128 249.625,69.4794 246.5,68.5 Z"/></g>
<g><path style="opacity:1" fill="#454144" d="M 246.5,68.5 C 249.625,69.4794 252.958,69.8128 256.5,69.5C 259.625,70.4794 262.958,70.8128 266.5,70.5C 266.17,87.6749 266.503,104.675 267.5,121.5C 265.283,132.888 258.616,140.388 247.5,144C 226.836,144.5 206.169,144.667 185.5,144.5C 185.5,119.167 185.5,93.8333 185.5,68.5C 192.5,68.5 199.5,68.5 206.5,68.5C 206.73,64.306 208.397,60.806 211.5,58C 224.177,48.1541 235.343,49.6541 245,62.5C 246.128,64.3453 246.628,66.3453 246.5,68.5 Z"/></g>
<g><path style="opacity:1" fill="#5eb74e" d="M 241.5,119.5 C 247.846,123.515 252.846,128.848 256.5,135.5C 253.086,138.54 249.086,140.54 244.5,141.5C 238.5,141.5 232.5,141.5 226.5,141.5C 226.231,137.069 226.564,132.735 227.5,128.5C 230.462,125.036 233.629,121.703 237,118.5C 238.356,119.38 239.856,119.714 241.5,119.5 Z"/></g>
<g><path style="opacity:1" fill="#89c45e" d="M 227.5,128.5 C 226.564,132.735 226.231,137.069 226.5,141.5C 216.167,141.5 205.833,141.5 195.5,141.5C 197.815,131.517 203.482,124.184 212.5,119.5C 214.137,118.782 215.803,118.616 217.5,119C 220.066,123.068 223.399,126.235 227.5,128.5 Z"/></g>
<g><path style="opacity:1" fill="#474445" d="M 227.5,90.5 C 236.925,79.6411 247.425,78.6411 259,87.5C 262.231,90.8818 263.731,94.8818 263.5,99.5C 263.5,99.8333 263.5,100.167 263.5,100.5C 262.419,113.907 255.086,120.24 241.5,119.5C 239.856,119.714 238.356,119.38 237,118.5C 233.629,121.703 230.462,125.036 227.5,128.5C 223.399,126.235 220.066,123.068 217.5,119C 215.803,118.616 214.137,118.782 212.5,119.5C 197.986,120.65 190.319,113.984 189.5,99.5C 191.339,88.4956 197.839,82.4956 209,81.5C 216.775,82.1137 222.608,85.7804 226.5,92.5C 227.298,92.0431 227.631,91.3764 227.5,90.5 Z"/></g>
<g><path style="opacity:1" fill="#efcd67" d="M 226.5,114.5 C 229.712,114.106 232.046,115.272 233.5,118C 231.888,120.616 229.888,122.95 227.5,125C 226.563,125.692 225.897,125.525 225.5,124.5C 226.479,121.375 226.813,118.042 226.5,114.5 Z"/></g>
<g><path style="opacity:1" fill="#fcfbbb" d="M 226.5,114.5 C 226.813,118.042 226.479,121.375 225.5,124.5C 223.652,122.484 221.985,120.317 220.5,118C 221.686,115.569 223.686,114.403 226.5,114.5 Z"/></g>
<g><path style="opacity:1" fill="#528d4c" d="M 225.5,109.5 C 226.995,109.415 227.995,110.081 228.5,111.5C 227.167,112.833 225.833,112.833 224.5,111.5C 224.863,110.817 225.196,110.15 225.5,109.5 Z"/></g>
<g><path style="opacity:1" fill="#5eb54e" d="M 188.5,71.5 C 195.508,71.3337 202.508,71.5004 209.5,72C 215.495,72.4148 221.161,73.9148 226.5,76.5C 226.226,81.263 226.559,85.9296 227.5,90.5C 227.631,91.3764 227.298,92.0431 226.5,92.5C 222.608,85.7804 216.775,82.1137 209,81.5C 197.839,82.4956 191.339,88.4956 189.5,99.5C 190.319,113.984 197.986,120.65 212.5,119.5C 203.482,124.184 197.815,131.517 195.5,141.5C 193.167,141.5 190.833,141.5 188.5,141.5C 188.5,118.167 188.5,94.8333 188.5,71.5 Z"/></g>
<g><path style="opacity:1" fill="#4a9d4b" d="M 263.5,100.5 C 264.49,106.645 264.823,112.978 264.5,119.5C 264.035,125.956 261.369,131.29 256.5,135.5C 252.846,128.848 247.846,123.515 241.5,119.5C 255.086,120.24 262.419,113.907 263.5,100.5 Z"/></g>
<g><path style="opacity:1" fill="#f3f3f3" d="M 239.5,84.5 C 255.622,84.1161 262.122,91.7828 259,107.5C 254.339,115.837 247.339,118.504 238,115.5C 228.587,109.593 226.254,101.593 231,91.5C 233.464,88.519 236.297,86.1856 239.5,84.5 Z"/></g>
<g><path style="opacity:1" fill="#9f9e9d" d="M 245.5,91.5 C 243.972,92.8021 242.972,94.4687 242.5,96.5C 242.5,94.5 242.5,92.5 242.5,90.5C 243.791,90.2627 244.791,90.596 245.5,91.5 Z"/></g>
<g><path style="opacity:1" fill="#4a4848" d="M 245.5,91.5 C 253.04,95.3137 254.54,100.98 250,108.5C 244.395,112.678 239.062,112.345 234,107.5C 232.325,103.915 232.158,100.248 233.5,96.5C 234.784,97.585 236.284,98.2517 238,98.5C 240.008,98.6932 241.508,98.0265 242.5,96.5C 242.972,94.4687 243.972,92.8021 245.5,91.5 Z"/></g>
<g><path style="opacity:1" fill="#f1f2f1" d="M 203.5,84.5 C 218.879,84.0416 225.712,91.3749 224,106.5C 219.424,115.125 212.258,118.291 202.5,116C 192.519,109.404 190.352,100.904 196,90.5C 198.478,88.3606 200.978,86.3606 203.5,84.5 Z"/></g>
<g><path style="opacity:1" fill="#494848" d="M 211.5,91.5 C 217.99,91.6583 220.99,94.9916 220.5,101.5C 220.261,107.74 216.927,111.073 210.5,111.5C 201.942,109.618 199.108,104.618 202,96.5C 208.127,100.294 211.294,98.6275 211.5,91.5 Z"/></g>
<g><path style="opacity:1" fill="#4a9e4b" d="M 264.5,72.5 C 264.827,81.6822 264.493,90.6822 263.5,99.5C 263.731,94.8818 262.231,90.8818 259,87.5C 247.425,78.6411 236.925,79.6411 227.5,90.5C 226.559,85.9296 226.226,81.263 226.5,76.5C 238.894,71.7242 251.561,70.3909 264.5,72.5 Z"/></g>
<g><path style="opacity:1" fill="#4f674b" d="M 264.5,72.5 C 265.833,88.1667 265.833,103.833 264.5,119.5C 264.823,112.978 264.49,106.645 263.5,100.5C 263.5,100.167 263.5,99.8333 263.5,99.5C 264.493,90.6822 264.827,81.6822 264.5,72.5 Z"/></g>
<g><path style="opacity:1" fill="#4d504b" d="M 188.5,71.5 C 188.5,94.8333 188.5,118.167 188.5,141.5C 190.833,141.5 193.167,141.5 195.5,141.5C 205.833,141.5 216.167,141.5 226.5,141.5C 232.5,141.5 238.5,141.5 244.5,141.5C 225.338,142.662 206.004,142.829 186.5,142C 187.829,118.53 187.829,95.0297 186.5,71.5C 187.257,70.2267 187.923,70.2267 188.5,71.5 Z"/></g>
<g><path style="opacity:1" fill="#f8f8f7" d="M 220.5,57.5 C 231.366,55.0917 238.366,59.0917 241.5,69.5C 236.161,69.5561 230.994,70.5561 226,72.5C 221.192,71.0638 216.359,69.7305 211.5,68.5C 213.45,63.8922 216.45,60.2256 220.5,57.5 Z"/></g>
<g><path style="opacity:1" fill="#cbe9cd" d="M 166.5,157.5 C 167.209,156.596 168.209,156.263 169.5,156.5C 169.5,163.167 169.5,169.833 169.5,176.5C 169.149,169.935 168.149,163.601 166.5,157.5 Z"/></g>
<g><path style="opacity:1" fill="#37ab39" d="M 285.5,169.5 C 285.768,171.099 285.434,172.432 284.5,173.5C 275.211,170.624 271.378,173.957 273,183.5C 275.053,187.292 278.219,188.458 282.5,187C 285.222,185.728 286.556,183.561 286.5,180.5C 287.491,174.021 287.824,167.354 287.5,160.5C 287.762,158.436 288.929,157.103 291,156.5C 291.667,165.833 291.667,175.167 291,184.5C 286.379,192.592 279.879,194.426 271.5,190C 267.758,185.483 266.591,180.316 268,174.5C 272.349,167.341 278.182,165.674 285.5,169.5 Z"/></g>
<g><path style="opacity:1" fill="#3dae3f" d="M 166.5,157.5 C 168.149,163.601 169.149,169.935 169.5,176.5C 170.552,176.649 171.552,176.483 172.5,176C 174.291,173.586 175.957,171.086 177.5,168.5C 179.5,167.167 181.5,167.167 183.5,168.5C 181.5,171.5 179.5,174.5 177.5,177.5C 179.611,178.605 180.945,180.271 181.5,182.5C 182.055,186.012 181.388,189.012 179.5,191.5C 178.542,191.047 177.708,190.381 177,189.5C 176.774,186.905 176.274,184.405 175.5,182C 173.19,181.503 170.857,181.337 168.5,181.5C 168.5,184.833 168.5,188.167 168.5,191.5C 166.61,191.703 165.11,191.037 164,189.5C 163.333,179.5 163.333,169.5 164,159.5C 164.708,158.619 165.542,157.953 166.5,157.5 Z"/></g>
<g><path style="opacity:1" fill="#3dab3d" d="M 299.5,159.5 C 302.966,160.109 303.966,161.942 302.5,165C 297.289,165.546 296.289,163.713 299.5,159.5 Z"/></g>
<g><path style="opacity:1" fill="#44b044" d="M 122.5,162.5 C 124.028,163.802 125.028,165.469 125.5,167.5C 128.167,167.5 130.833,167.5 133.5,167.5C 133.5,169.167 133.5,170.833 133.5,172.5C 130.5,172.5 127.5,172.5 124.5,172.5C 124.181,177.363 124.514,182.03 125.5,186.5C 127.948,187.473 130.615,187.806 133.5,187.5C 133.5,189.167 133.5,190.833 133.5,192.5C 127.259,194.012 122.759,192.012 120,186.5C 119.333,179.167 119.333,171.833 120,164.5C 120.708,163.619 121.542,162.953 122.5,162.5 Z"/></g>
<g><path style="opacity:1" fill="#abdcac" d="M 122.5,162.5 C 123.209,161.596 124.209,161.263 125.5,161.5C 125.5,163.5 125.5,165.5 125.5,167.5C 125.028,165.469 124.028,163.802 122.5,162.5 Z"/></g>
<g><path style="opacity:1" fill="#93d395" d="M 302.5,167.5 C 303.821,175.676 303.821,184.009 302.5,192.5C 301.893,192.376 301.56,192.043 301.5,191.5C 302.492,183.684 302.826,175.684 302.5,167.5 Z"/></g>
<g><path style="opacity:1" fill="#3eae40" d="M 142.5,167.5 C 156.478,166.638 161.978,172.971 159,186.5C 153.525,193.037 147.025,194.204 139.5,190C 132.186,181.384 133.186,173.884 142.5,167.5 Z"/></g>
<g><path style="opacity:1" fill="#3cad3f" d="M 192.5,167.5 C 204.985,166.484 210.485,172.151 209,184.5C 205.628,191.433 200.128,193.933 192.5,192C 185.526,188.551 183.026,183.051 185,175.5C 187.028,172.308 189.528,169.641 192.5,167.5 Z"/></g>
<g><path style="opacity:1" fill="#3dae40" d="M 220.5,167.5 C 232.649,166.815 238.149,172.482 237,184.5C 233.628,191.433 228.128,193.933 220.5,192C 218.424,190.116 218.09,187.949 219.5,185.5C 228.902,189.718 233.068,186.718 232,176.5C 228.011,171.644 223.678,171.311 219,175.5C 217.557,184.392 217.057,193.392 217.5,202.5C 215.61,202.703 214.11,202.037 213,200.5C 212.087,191.424 212.42,182.424 214,173.5C 216.063,171.266 218.229,169.266 220.5,167.5 Z"/></g>
<g><path style="opacity:1" fill="#3bad3d" d="M 247.5,167.5 C 258.472,165.969 264.472,170.635 265.5,181.5C 258.468,181.17 251.468,181.503 244.5,182.5C 248.59,188.346 253.424,189.013 259,184.5C 260.622,184.954 261.788,185.954 262.5,187.5C 261.307,189.527 259.64,191.027 257.5,192C 244.879,193.713 239.046,188.213 240,175.5C 242.028,172.308 244.528,169.641 247.5,167.5 Z"/></g>
<g><path style="opacity:1" fill="#b1dfb3" d="M 287.5,160.5 C 287.824,167.354 287.491,174.021 286.5,180.5C 286.815,177.789 286.148,175.456 284.5,173.5C 285.434,172.432 285.768,171.099 285.5,169.5C 286.167,166.5 286.833,163.5 287.5,160.5 Z"/></g>
<g><path style="opacity:1" fill="#35ab38" d="M 302.5,167.5 C 302.826,175.684 302.492,183.684 301.5,191.5C 300.504,191.586 299.671,191.252 299,190.5C 298.5,182.841 298.334,175.174 298.5,167.5C 299.833,167.5 301.167,167.5 302.5,167.5 Z"/></g>
<g><path style="opacity:1" fill="#3aac3d" d="M 332.5,174.5 C 332.822,180.358 332.489,186.025 331.5,191.5C 329.025,190.313 328.025,188.313 328.5,185.5C 328.813,181.958 328.479,178.625 327.5,175.5C 325.969,173.32 323.802,172.32 321,172.5C 314.684,173.503 312.351,177.17 314,183.5C 317.374,187.86 321.208,188.527 325.5,185.5C 326.451,186.919 326.784,188.585 326.5,190.5C 312.838,194.331 307.005,188.997 309,174.5C 313.933,167.509 320.433,165.675 328.5,169C 330.439,170.432 331.772,172.265 332.5,174.5 Z"/></g>
<g><path style="opacity:1" fill="#f9fcf9" d="M 143.5,172.5 C 152.328,171.161 155.828,174.827 154,183.5C 151.947,187.292 148.781,188.458 144.5,187C 143.069,186.535 141.903,185.701 141,184.5C 139.773,179.938 140.607,175.938 143.5,172.5 Z"/></g>
<g><path style="opacity:1" fill="#f9fcf9" d="M 193.5,172.5 C 201.494,171.329 204.994,174.663 204,182.5C 201.928,187.143 198.428,188.643 193.5,187C 188.189,182.045 188.189,177.212 193.5,172.5 Z"/></g>
<g><path style="opacity:1" fill="#f9fcf9" d="M 258.5,175.5 C 254.5,176.833 250.5,176.833 246.5,175.5C 247.898,173.467 249.898,172.467 252.5,172.5C 255.102,172.467 257.102,173.467 258.5,175.5 Z"/></g>
<g><path style="opacity:1" fill="#fbfcfb" d="M 284.5,173.5 C 286.148,175.456 286.815,177.789 286.5,180.5C 286.556,183.561 285.222,185.728 282.5,187C 278.219,188.458 275.053,187.292 273,183.5C 271.378,173.957 275.211,170.624 284.5,173.5 Z"/></g>
<g><path style="opacity:1" fill="#fafcfa" d="M 327.5,175.5 C 327.94,179.179 327.273,182.512 325.5,185.5C 321.208,188.527 317.374,187.86 314,183.5C 312.351,177.17 314.684,173.503 321,172.5C 323.802,172.32 325.969,173.32 327.5,175.5 Z"/></g>
<g><path style="opacity:1" fill="#b4e0b5" d="M 133.5,172.5 C 131.052,173.473 128.385,173.806 125.5,173.5C 125.5,177.833 125.5,182.167 125.5,186.5C 124.514,182.03 124.181,177.363 124.5,172.5C 127.5,172.5 130.5,172.5 133.5,172.5 Z"/></g>
<g><path style="opacity:1" fill="#b3dfb4" d="M 246.5,175.5 C 250.5,176.833 254.5,176.833 258.5,175.5C 259.043,175.56 259.376,175.893 259.5,176.5C 254.833,177.833 250.167,177.833 245.5,176.5C 245.624,175.893 245.957,175.56 246.5,175.5 Z"/></g>
<g><path style="opacity:1" fill="#71c474" d="M 332.5,174.5 C 333.817,180.346 333.817,186.346 332.5,192.5C 331.893,192.376 331.56,192.043 331.5,191.5C 332.489,186.025 332.822,180.358 332.5,174.5 Z"/></g>
<g><path style="opacity:1" fill="#bde3be" d="M 327.5,175.5 C 328.479,178.625 328.813,181.958 328.5,185.5C 327.833,187.167 327.167,188.833 326.5,190.5C 326.784,188.585 326.451,186.919 325.5,185.5C 327.273,182.512 327.94,179.179 327.5,175.5 Z"/></g>
<g><path style="opacity:1" fill="#b2dfb3" d="M 181.5,182.5 C 182.479,185.625 182.813,188.958 182.5,192.5C 181.209,192.737 180.209,192.404 179.5,191.5C 181.388,189.012 182.055,186.012 181.5,182.5 Z"/></g>
</svg>
